  0
SECTION
  2
HEADER
  9
$ACADVER
  1
AC1024
  9
$ACADMAINTVER
 70
6
  9
$DWGCODEPAGE
  3
ANSI_1252
  9
$LASTSAVEDBY
  1
ezdxf
  9
$INSBASE
 10
0.0
 20
0.0
 30
0.0
  9
$EXTMIN
 10
1e+20
 20
1e+20
 30
1e+20
  9
$EXTMAX
 10
-1e+20
 20
-1e+20
 30
-1e+20
  9
$LIMMIN
 10
0.0
 20
0.0
  9
$LIMMAX
 10
420.0
 20
297.0
  9
$ORTHOMODE
 70
0
  9
$REGENMODE
 70
1
  9
$FILLMODE
 70
1
  9
$QTEXTMODE
 70
0
  9
$MIRRTEXT
 70
1
  9
$LTSCALE
 40
1.0
  9
$ATTMODE
 70
1
  9
$TEXTSIZE
 40
2.5
  9
$TRACEWID
 40
1.0
  9
$TEXTSTYLE
  7
Standard
  9
$CLAYER
  8
0
  9
$CELTYPE
  6
ByLayer
  9
$CECOLOR
 62
256
  9
$CELTSCALE
 40
1.0
  9
$DISPSILH
 70
0
  9
$DIMSCALE
 40
1.0
  9
$DIMASZ
 40
2.5
  9
$DIMEXO
 40
0.625
  9
$DIMDLI
 40
3.75
  9
$DIMRND
 40
0.0
  9
$DIMDLE
 40
0.0
  9
$DIMEXE
 40
1.25
  9
$DIMTP
 40
0.0
  9
$DIMTM
 40
0.0
  9
$DIMTXT
 40
2.5
  9
$DIMCEN
 40
2.5
  9
$DIMTSZ
 40
0.0
  9
$DIMTOL
 70
0
  9
$DIMLIM
 70
0
  9
$DIMTIH
 70
0
  9
$DIMTOH
 70
0
  9
$DIMSE1
 70
0
  9
$DIMSE2
 70
0
  9
$DIMTAD
 70
1
  9
$DIMZIN
 70
8
  9
$DIMBLK
  1

  9
$DIMASO
 70
1
  9
$DIMSHO
 70
1
  9
$DIMPOST
  1

  9
$DIMAPOST
  1

  9
$DIMALT
 70
0
  9
$DIMALTD
 70
3
  9
$DIMALTF
 40
0.03937007874
  9
$DIMLFAC
 40
1.0
  9
$DIMTOFL
 70
1
  9
$DIMTVP
 40
0.0
  9
$DIMTIX
 70
0
  9
$DIMSOXD
 70
0
  9
$DIMSAH
 70
0
  9
$DIMBLK1
  1

  9
$DIMBLK2
  1

  9
$DIMSTYLE
  2
ISO-25
  9
$DIMCLRD
 70
0
  9
$DIMCLRE
 70
0
  9
$DIMCLRT
 70
0
  9
$DIMTFAC
 40
1.0
  9
$DIMGAP
 40
0.625
  9
$DIMJUST
 70
0
  9
$DIMSD1
 70
0
  9
$DIMSD2
 70
0
  9
$DIMTOLJ
 70
0
  9
$DIMTZIN
 70
8
  9
$DIMALTZ
 70
0
  9
$DIMALTTZ
 70
0
  9
$DIMUPT
 70
0
  9
$DIMDEC
 70
2
  9
$DIMTDEC
 70
2
  9
$DIMALTU
 70
2
  9
$DIMALTTD
 70
3
  9
$DIMTXSTY
  7
Standard
  9
$DIMAUNIT
 70
0
  9
$DIMADEC
 70
0
  9
$DIMALTRND
 40
0.0
  9
$DIMAZIN
 70
0
  9
$DIMDSEP
 70
44
  9
$DIMATFIT
 70
3
  9
$DIMFRAC
 70
0
  9
$DIMLDRBLK
  1

  9
$DIMLUNIT
 70
2
  9
$DIMLWD
 70
-2
  9
$DIMLWE
 70
-2
  9
$DIMTMOVE
 70
0
  9
$DIMFXL
 40
1.0
  9
$DIMFXLON
 70
0
  9
$DIMJOGANG
 40
0.785398163397
  9
$DIMTFILL
 70
0
  9
$DIMTFILLCLR
 70
0
  9
$DIMARCSYM
 70
0
  9
$DIMLTYPE
  6

  9
$DIMLTEX1
  6

  9
$DIMLTEX2
  6

  9
$DIMTXTDIRECTION
 70
0
  9
$LUNITS
 70
2
  9
$LUPREC
 70
4
  9
$SKETCHINC
 40
1.0
  9
$FILLETRAD
 40
10.0
  9
$AUNITS
 70
0
  9
$AUPREC
 70
2
  9
$MENU
  1
.
  9
$ELEVATION
 40
0.0
  9
$PELEVATION
 40
0.0
  9
$THICKNESS
 40
0.0
  9
$LIMCHECK
 70
0
  9
$CHAMFERA
 40
0.0
  9
$CHAMFERB
 40
0.0
  9
$CHAMFERC
 40
0.0
  9
$CHAMFERD
 40
0.0
  9
$SKPOLY
 70
0
  9
$TDCREATE
 40
2461279.423738426
  9
$TDUCREATE
 40
2458532.153996898
  9
$TDUPDATE
 40
2461279.423738426
  9
$TDUUPDATE
 40
2458532.1544311
  9
$TDINDWG
 40
0.0
  9
$TDUSRTIMER
 40
0.0
  9
$USRTIMER
 70
1
  9
$ANGBASE
 50
0.0
  9
$ANGDIR
 70
0
  9
$PDMODE
 70
0
  9
$PDSIZE
 40
0.0
  9
$PLINEWID
 40
0.0
  9
$SPLFRAME
 70
0
  9
$SPLINETYPE
 70
6
  9
$SPLINESEGS
 70
8
  9
$HANDSEED
  5
217
  9
$SURFTAB1
 70
6
  9
$SURFTAB2
 70
6
  9
$SURFTYPE
 70
6
  9
$SURFU
 70
6
  9
$SURFV
 70
6
  9
$UCSBASE
  2

  9
$UCSNAME
  2

  9
$UCSORG
 10
0.0
 20
0.0
 30
0.0
  9
$UCSXDIR
 10
1.0
 20
0.0
 30
0.0
  9
$UCSYDIR
 10
0.0
 20
1.0
 30
0.0
  9
$UCSORTHOREF
  2

  9
$UCSORTHOVIEW
 70
0
  9
$UCSORGTOP
 10
0.0
 20
0.0
 30
0.0
  9
$UCSORGBOTTOM
 10
0.0
 20
0.0
 30
0.0
  9
$UCSORGLEFT
 10
0.0
 20
0.0
 30
0.0
  9
$UCSORGRIGHT
 10
0.0
 20
0.0
 30
0.0
  9
$UCSORGFRONT
 10
0.0
 20
0.0
 30
0.0
  9
$UCSORGBACK
 10
0.0
 20
0.0
 30
0.0
  9
$PUCSBASE
  2

  9
$PUCSNAME
  2

  9
$PUCSORG
 10
0.0
 20
0.0
 30
0.0
  9
$PUCSXDIR
 10
1.0
 20
0.0
 30
0.0
  9
$PUCSYDIR
 10
0.0
 20
1.0
 30
0.0
  9
$PUCSORTHOREF
  2

  9
$PUCSORTHOVIEW
 70
0
  9
$PUCSORGTOP
 10
0.0
 20
0.0
 30
0.0
  9
$PUCSORGBOTTOM
 10
0.0
 20
0.0
 30
0.0
  9
$PUCSORGLEFT
 10
0.0
 20
0.0
 30
0.0
  9
$PUCSORGRIGHT
 10
0.0
 20
0.0
 30
0.0
  9
$PUCSORGFRONT
 10
0.0
 20
0.0
 30
0.0
  9
$PUCSORGBACK
 10
0.0
 20
0.0
 30
0.0
  9
$USERI1
 70
0
  9
$USERI2
 70
0
  9
$USERI3
 70
0
  9
$USERI4
 70
0
  9
$USERI5
 70
0
  9
$USERR1
 40
0.0
  9
$USERR2
 40
0.0
  9
$USERR3
 40
0.0
  9
$USERR4
 40
0.0
  9
$USERR5
 40
0.0
  9
$WORLDVIEW
 70
1
  9
$SHADEDGE
 70
3
  9
$SHADEDIF
 70
70
  9
$TILEMODE
 70
1
  9
$MAXACTVP
 70
64
  9
$PINSBASE
 10
0.0
 20
0.0
 30
0.0
  9
$PLIMCHECK
 70
0
  9
$PEXTMIN
 10
1e+20
 20
1e+20
 30
1e+20
  9
$PEXTMAX
 10
-1e+20
 20
-1e+20
 30
-1e+20
  9
$PLIMMIN
 10
0.0
 20
0.0
  9
$PLIMMAX
 10
420.0
 20
297.0
  9
$UNITMODE
 70
0
  9
$VISRETAIN
 70
1
  9
$PLINEGEN
 70
0
  9
$PSLTSCALE
 70
1
  9
$TREEDEPTH
 70
3020
  9
$CMLSTYLE
  2
Standard
  9
$CMLJUST
 70
0
  9
$CMLSCALE
 40
20.0
  9
$PROXYGRAPHICS
 70
1
  9
$MEASUREMENT
 70
1
  9
$CELWEIGHT
370
-1
  9
$ENDCAPS
280
0
  9
$JOINSTYLE
280
0
  9
$LWDISPLAY
290
0
  9
$INSUNITS
 70
4
  9
$HYPERLINKBASE
  1

  9
$STYLESHEET
  1

  9
$XEDIT
290
1
  9
$CEPSNTYPE
380
0
  9
$PSTYLEMODE
290
1
  9
$FINGERPRINTGUID
  2
{742C0D45-D7F0-482F-A576-22F2FD4BDAFA}
  9
$VERSIONGUID
  2
{CDDDDFD1-C07D-4FE2-A2E4-3745EF9A0474}
  9
$EXTNAMES
290
1
  9
$PSVPSCALE
 40
0.0
  9
$OLESTARTUP
290
0
  9
$SORTENTS
280
127
  9
$INDEXCTL
280
0
  9
$HIDETEXT
280
1
  9
$XCLIPFRAME
280
1
  9
$HALOGAP
280
0
  9
$OBSCOLOR
 70
257
  9
$OBSLTYPE
280
0
  9
$INTERSECTIONDISPLAY
280
0
  9
$INTERSECTIONCOLOR
 70
257
  9
$DIMASSOC
280
2
  9
$PROJECTNAME
  1

  9
$CAMERADISPLAY
290
0
  9
$LENSLENGTH
 40
50.0
  9
$CAMERAHEIGHT
 40
0.0
  9
$STEPSPERSEC
 40
24.0
  9
$STEPSIZE
 40
100.0
  9
$3DDWFPREC
 40
2.0
  9
$PSOLWIDTH
 40
0.005
  9
$PSOLHEIGHT
 40
0.08
  9
$LOFTANG1
 40
1.570796326795
  9
$LOFTANG2
 40
1.570796326795
  9
$LOFTMAG1
 40
0.0
  9
$LOFTMAG2
 40
0.0
  9
$LOFTPARAM
 70
7
  9
$LOFTNORMALS
280
1
  9
$LATITUDE
 40
37.795
  9
$LONGITUDE
 40
-122.394
  9
$NORTHDIRECTION
 40
0.0
  9
$TIMEZONE
 70
-8000
  9
$LIGHTGLYPHDISPLAY
280
1
  9
$TILEMODELIGHTSYNCH
280
1
  9
$CMATERIAL
347
20
  9
$SOLIDHIST
280
0
  9
$SHOWHIST
280
1
  9
$DWFFRAME
280
2
  9
$DGNFRAME
280
2
  9
$REALWORLDSCALE
290
1
  9
$INTERFERECOLOR
 62
256
  9
$CSHADOW
280
0
  9
$SHADOWPLANELOCATION
 40
0.0
  0
ENDSEC
  0
SECTION
  2
CLASSES
  0
CLASS
  1
ACDBDICTIONARYWDFLT
  2
AcDbDictionaryWithDefault
  3
ObjectDBX Classes
 90
0
 91
0
280
0
281
0
  0
CLASS
  1
SUN
  2
AcDbSun
  3
SCENEOE
 90
1153
 91
0
280
0
281
0
  0
CLASS
  1
VISUALSTYLE
  2
AcDbVisualStyle
  3
ObjectDBX Classes
 90
4095
 91
0
280
0
281
0
  0
CLASS
  1
MATERIAL
  2
AcDbMaterial
  3
ObjectDBX Classes
 90
1153
 91
0
280
0
281
0
  0
CLASS
  1
SCALE
  2
AcDbScale
  3
ObjectDBX Classes
 90
1153
 91
0
280
0
281
0
  0
CLASS
  1
TABLESTYLE
  2
AcDbTableStyle
  3
ObjectDBX Classes
 90
4095
 91
0
280
0
281
0
  0
CLASS
  1
MLEADERSTYLE
  2
AcDbMLeaderStyle
  3
ACDB_MLEADERSTYLE_CLASS
 90
4095
 91
0
280
0
281
0
  0
CLASS
  1
DICTIONARYVAR
  2
AcDbDictionaryVar
  3
ObjectDBX Classes
 90
0
 91
0
280
0
281
0
  0
CLASS
  1
CELLSTYLEMAP
  2
AcDbCellStyleMap
  3
ObjectDBX Classes
 90
1152
 91
0
280
0
281
0
  0
CLASS
  1
MENTALRAYRENDERSETTINGS
  2
AcDbMentalRayRenderSettings
  3
SCENEOE
 90
1024
 91
0
280
0
281
0
  0
CLASS
  1
ACDBDETAILVIEWSTYLE
  2
AcDbDetailViewStyle
  3
ObjectDBX Classes
 90
1025
 91
0
280
0
281
0
  0
CLASS
  1
ACDBSECTIONVIEWSTYLE
  2
AcDbSectionViewStyle
  3
ObjectDBX Classes
 90
1025
 91
0
280
0
281
0
  0
CLASS
  1
RASTERVARIABLES
  2
AcDbRasterVariables
  3
ISM
 90
0
 91
0
280
0
281
0
  0
CLASS
  1
LAYOUT
  2
AcDbLayout
  3
ObjectDBX Classes
 90
0
 91
0
280
0
281
0
  0
CLASS
  1
ACDBPLACEHOLDER
  2
AcDbPlaceHolder
  3
ObjectDBX Classes
 90
0
 91
0
280
0
281
0
  0
ENDSEC
  0
SECTION
  2
TABLES
  0
TABLE
  2
VPORT
  5
8
330
0
100
AcDbSymbolTable
 70
1
  0
VPORT
  5
23
330
8
100
AcDbSymbolTableRecord
100
AcDbViewportTableRecord
  2
*Active
 70
0
 10
0.0
 20
0.0
 11
1.0
 21
1.0
 12
0.0
 22
0.0
 13
0.0
 23
0.0
 14
0.5
 24
0.5
 15
0.5
 25
0.5
 16
0.0
 26
0.0
 36
1.0
 17
0.0
 27
0.0
 37
0.0
 40
1000.0
 41
1.34
 42
50.0
 43
0.0
 44
0.0
 50
0.0
 51
0.0
 71
0
 72
1000
 73
1
 74
3
 75
0
 76
0
 77
0
 78
0
281
0
 65
0
146
0.0
  0
ENDTAB
  0
TABLE
  2
LTYPE
  5
2
330
0
100
AcDbSymbolTable
 70
3
  0
LTYPE
  5
24
330
2
100
AcDbSymbolTableRecord
100
AcDbLinetypeTableRecord
  2
ByBlock
 70
0
  3

 72
65
 73
0
 40
0.0
  0
LTYPE
  5
25
330
2
100
AcDbSymbolTableRecord
100
AcDbLinetypeTableRecord
  2
ByLayer
 70
0
  3

 72
65
 73
0
 40
0.0
  0
LTYPE
  5
26
330
2
100
AcDbSymbolTableRecord
100
AcDbLinetypeTableRecord
  2
Continuous
 70
0
  3

 72
65
 73
0
 40
0.0
  0
ENDTAB
  0
TABLE
  2
LAYER
  5
1
330
0
100
AcDbSymbolTable
 70
7
  0
LAYER
  5
27
330
1
100
AcDbSymbolTableRecord
100
AcDbLayerTableRecord
  2
0
 70
0
 62
7
  6
Continuous
370
-3
390
13
347
21
  0
LAYER
  5
28
330
1
100
AcDbSymbolTableRecord
100
AcDbLayerTableRecord
  2
Defpoints
 70
0
 62
7
  6
Continuous
290
0
370
-3
390
13
347
21
  0
LAYER
  5
2F
330
1
100
AcDbSymbolTableRecord
100
AcDbLayerTableRecord
  2
00_SOURCE_REF
 70
0
 62
8
  6
Continuous
370
-3
390
13
347
21
  0
LAYER
  5
30
330
1
100
AcDbSymbolTableRecord
100
AcDbLayerTableRecord
  2
10_GEOMETRY_CANDIDATE
 70
0
 62
7
  6
Continuous
370
-3
390
13
347
21
  0
LAYER
  5
31
330
1
100
AcDbSymbolTableRecord
100
AcDbLayerTableRecord
  2
20_TEXT_CANDIDATE
 70
0
 62
1
  6
Continuous
370
-3
390
13
347
21
  0
LAYER
  5
32
330
1
100
AcDbSymbolTableRecord
100
AcDbLayerTableRecord
  2
30_TEXT_VALIDATED
 70
0
 62
5
  6
Continuous
370
-3
390
13
347
21
  0
LAYER
  5
33
330
1
100
AcDbSymbolTableRecord
100
AcDbLayerTableRecord
  2
90_REVIEW_MARKUP
 70
0
 62
3
  6
Continuous
370
-3
390
13
347
21
  0
ENDTAB
  0
TABLE
  2
STYLE
  5
5
330
0
100
AcDbSymbolTable
 70
1
  0
STYLE
  5
29
330
5
100
AcDbSymbolTableRecord
100
AcDbTextStyleTableRecord
  2
Standard
 70
0
 40
0.0
 41
1.0
 50
0.0
 71
0
 42
2.5
  3
txt
  4

  0
ENDTAB
  0
TABLE
  2
VIEW
  5
7
330
0
100
AcDbSymbolTable
 70
0
  0
ENDTAB
  0
TABLE
  2
UCS
  5
6
330
0
100
AcDbSymbolTable
 70
0
  0
ENDTAB
  0
TABLE
  2
APPID
  5
3
330
0
100
AcDbSymbolTable
 70
3
  0
APPID
  5
2A
330
3
100
AcDbSymbolTableRecord
100
AcDbRegAppTableRecord
  2
ACAD
 70
0
  0
APPID
  5
214
330
3
100
AcDbSymbolTableRecord
100
AcDbRegAppTableRecord
  2
HATCHBACKGROUNDCOLOR
 70
0
  0
APPID
  5
215
330
3
100
AcDbSymbolTableRecord
100
AcDbRegAppTableRecord
  2
EZDXF
 70
0
  0
ENDTAB
  0
TABLE
  2
DIMSTYLE
  5
4
330
0
100
AcDbSymbolTable
 70
1
100
AcDbDimStyleTable
  0
DIMSTYLE
105
2B
330
4
100
AcDbSymbolTableRecord
100
AcDbDimStyleTableRecord
  2
Standard
 70
0
 40
1.0
 41
2.5
 42
0.625
 43
3.75
 44
1.25
 45
0.0
 46
0.0
 47
0.0
 48
0.0
 49
2.5
140
2.5
141
2.5
142
0.0
143
0.03937007874
144
1.0
145
0.0
146
1.0
147
0.625
148
0.0
 69
0
 70
0
 71
0
 72
0
 73
0
 74
0
 75
0
 76
0
 77
1
 78
8
 79
3
170
0
171
3
172
1
173
0
174
0
175
0
176
0
177
0
178
0
179
2
271
2
272
2
273
2
274
3
275
0
276
0
277
2
278
44
279
0
280
0
281
0
282
0
283
0
284
8
285
0
286
0
288
0
289
3
290
0
371
-2
372
-2
  0
ENDTAB
  0
TABLE
  2
BLOCK_RECORD
  5
9
330
0
100
AcDbSymbolTable
 70
2
  0
BLOCK_RECORD
  5
17
330
9
100
AcDbSymbolTableRecord
100
AcDbBlockTableRecord
  2
*Model_Space
340
1A
 70
0
280
1
281
0
  0
BLOCK_RECORD
  5
1B
330
9
100
AcDbSymbolTableRecord
100
AcDbBlockTableRecord
  2
*Paper_Space
340
1E
 70
0
280
1
281
0
  0
ENDTAB
  0
ENDSEC
  0
SECTION
  2
BLOCKS
  0
BLOCK
  5
18
330
17
100
AcDbEntity
  8
0
100
AcDbBlockBegin
  2
*Model_Space
 70
0
 10
0.0
 20
0.0
 30
0.0
  3
*Model_Space
  1

  0
ENDBLK
  5
19
330
17
100
AcDbEntity
  8
0
100
AcDbBlockEnd
  0
BLOCK
  5
1C
330
1B
100
AcDbEntity
  8
0
100
AcDbBlockBegin
  2
*Paper_Space
 70
0
 10
0.0
 20
0.0
 30
0.0
  3
*Paper_Space
  1

  0
ENDBLK
  5
1D
330
1B
100
AcDbEntity
  8
0
100
AcDbBlockEnd
  0
ENDSEC
  0
SECTION
  2
ENTITIES
  0
LINE
  5
34
330
17
100
AcDbEntity
  8
10_GEOMETRY_CANDIDATE
100
AcDbLine
 10
80.68733333333333
 20
137.83733333333336
 30
0.0
 11
80.68733333333333
 21
228.6
 31
0.0
  0
LINE
  5
35
330
17
100
AcDbEntity
  8
10_GEOMETRY_CANDIDATE
100
AcDbLine
 10
80.85666666666667
 20
134.112
 30
0.0
 11
80.85666666666667
 21
206.16333333333336
 31
0.0
  0
LINE
  5
36
330
17
100
AcDbEntity
  8
10_GEOMETRY_CANDIDATE
100
AcDbLine
 10
84.07399999999998
 20
220.98000000000002
 30
0.0
 11
84.07399999999998
 21
232.918
 31
0.0
  0
LINE
  5
37
330
17
100
AcDbEntity
  8
10_GEOMETRY_CANDIDATE
100
AcDbLine
 10
83.98933333333333
 20
138.00666666666666
 30
0.0
 11
83.98933333333333
 21
239.522
 31
0.0
  0
LINE
  5
38
330
17
100
AcDbEntity
  8
10_GEOMETRY_CANDIDATE
100
AcDbLine
 10
37.16866666666666
 20
108.62733333333335
 30
0.0
 11
64.77
 21
67.64866666666666
 31
0.0
  0
LINE
  5
39
330
17
100
AcDbEntity
  8
10_GEOMETRY_CANDIDATE
100
AcDbLine
 10
80.60266666666666
 20
162.56
 30
0.0
 11
80.60266666666666
 21
236.728
 31
0.0
  0
LINE
  5
3A
330
17
100
AcDbEntity
  8
10_GEOMETRY_CANDIDATE
100
AcDbLine
 10
80.77199999999999
 20
137.83733333333336
 30
0.0
 11
80.77199999999999
 21
217.50866666666667
 31
0.0
  0
LINE
  5
3B
330
17
100
AcDbEntity
  8
10_GEOMETRY_CANDIDATE
100
AcDbLine
 10
13.716000000000001
 20
60.19800000000001
 30
0.0
 11
17.102666666666664
 21
108.88133333333334
 31
0.0
  0
LINE
  5
3C
330
17
100
AcDbEntity
  8
10_GEOMETRY_CANDIDATE
100
AcDbLine
 10
18.457333333333334
 20
88.05333333333337
 30
0.0
 11
18.626666666666665
 21
98.89066666666668
 31
0.0
  0
LINE
  5
3D
330
17
100
AcDbEntity
  8
10_GEOMETRY_CANDIDATE
100
AcDbLine
 10
80.51799999999999
 20
191.85466666666667
 30
0.0
 11
80.51799999999999
 21
245.618
 31
0.0
  0
LINE
  5
3E
330
17
100
AcDbEntity
  8
10_GEOMETRY_CANDIDATE
100
AcDbLine
 10
83.90466666666666
 20
181.27133333333333
 30
0.0
 11
83.90466666666666
 21
239.522
 31
0.0
  0
LINE
  5
3F
330
17
100
AcDbEntity
  8
10_GEOMETRY_CANDIDATE
100
AcDbLine
 10
13.716000000000001
 20
60.621333333333325
 30
0.0
 11
17.017999999999997
 21
108.458
 31
0.0
  0
LINE
  5
40
330
17
100
AcDbEntity
  8
10_GEOMETRY_CANDIDATE
100
AcDbLine
 10
17.949333333333332
 20
80.01000000000002
 30
0.0
 11
18.203333333333333
 21
89.662
 31
0.0
  0
LINE
  5
41
330
17
100
AcDbEntity
  8
10_GEOMETRY_CANDIDATE
100
AcDbLine
 10
5.842
 20
38.692666666666696
 30
0.0
 11
5.842
 21
61.12933333333331
 31
0.0
  0
LINE
  5
42
330
17
100
AcDbEntity
  8
10_GEOMETRY_CANDIDATE
100
AcDbLine
 10
71.54333333333334
 20
279.4
 30
0.0
 11
83.82
 21
279.654
 31
0.0
  0
LINE
  5
43
330
17
100
AcDbEntity
  8
10_GEOMETRY_CANDIDATE
100
AcDbLine
 10
84.15866666666666
 20
133.35
 30
0.0
 11
84.15866666666666
 21
157.988
 31
0.0
  0
LINE
  5
44
330
17
100
AcDbEntity
  8
10_GEOMETRY_CANDIDATE
100
AcDbLine
 10
83.82
 20
196.85
 30
0.0
 11
83.82
 21
240.87666666666667
 31
0.0
  0
LINE
  5
45
330
17
100
AcDbEntity
  8
10_GEOMETRY_CANDIDATE
100
AcDbLine
 10
44.534666666666666
 20
67.90266666666665
 30
0.0
 11
70.78133333333332
 21
108.37333333333333
 31
0.0
  0
LINE
  5
46
330
17
100
AcDbEntity
  8
10_GEOMETRY_CANDIDATE
100
AcDbLine
 10
19.21933333333333
 20
144.61066666666667
 30
0.0
 11
19.388666666666666
 21
154.51666666666668
 31
0.0
  0
LINE
  5
47
330
17
100
AcDbEntity
  8
10_GEOMETRY_CANDIDATE
100
AcDbLine
 10
23.537333333333333
 20
133.26533333333333
 30
0.0
 11
42.07933333333333
 21
133.01133333333334
 31
0.0
  0
LINE
  5
48
330
17
100
AcDbEntity
  8
10_GEOMETRY_CANDIDATE
100
AcDbLine
 10
22.267333333333333
 20
191.34666666666666
 30
0.0
 11
22.605999999999998
 21
202.26866666666666
 31
0.0
  0
LINE
  5
49
330
17
100
AcDbEntity
  8
10_GEOMETRY_CANDIDATE
100
AcDbLine
 10
53.255333333333326
 20
109.55866666666665
 30
0.0
 11
58.081333333333326
 21
63.66933333333333
 31
0.0
  0
LINE
  5
4A
330
17
100
AcDbEntity
  8
10_GEOMETRY_CANDIDATE
100
AcDbLine
 10
21.166666666666668
 20
191.68533333333335
 30
0.0
 11
21.59
 21
202.26866666666666
 31
0.0
  0
LINE
  5
4B
330
17
100
AcDbEntity
  8
10_GEOMETRY_CANDIDATE
100
AcDbLine
 10
20.150666666666666
 20
178.64666666666668
 30
0.0
 11
20.404666666666664
 21
189.23000000000002
 31
0.0
  0
LINE
  5
4C
330
17
100
AcDbEntity
  8
10_GEOMETRY_CANDIDATE
100
AcDbLine
 10
32.766
 20
133.35
 30
0.0
 11
39.70866666666666
 21
133.35
 31
0.0
  0
LINE
  5
4D
330
17
100
AcDbEntity
  8
10_GEOMETRY_CANDIDATE
100
AcDbLine
 10
80.34866666666666
 20
220.13333333333333
 30
0.0
 11
80.34866666666666
 21
262.2973333333333
 31
0.0
  0
LINE
  5
4E
330
17
100
AcDbEntity
  8
10_GEOMETRY_CANDIDATE
100
AcDbLine
 10
58.166
 20
279.0613333333333
 30
0.0
 11
70.78133333333332
 21
279.23066666666665
 31
0.0
  0
LINE
  5
4F
330
17
100
AcDbEntity
  8
10_GEOMETRY_CANDIDATE
100
AcDbLine
 10
38.861999999999995
 20
108.62733333333335
 30
0.0
 11
44.534666666666666
 21
67.98733333333334
 31
0.0
  0
LINE
  5
50
330
17
100
AcDbEntity
  8
10_GEOMETRY_CANDIDATE
100
AcDbLine
 10
22.351999999999997
 20
191.262
 30
0.0
 11
22.690666666666665
 21
202.26866666666666
 31
0.0
  0
LINE
  5
51
330
17
100
AcDbEntity
  8
10_GEOMETRY_CANDIDATE
100
AcDbLine
 10
80.43333333333334
 20
208.70333333333332
 30
0.0
 11
80.43333333333334
 21
254.67733333333334
 31
0.0
  0
LINE
  5
52
330
17
100
AcDbEntity
  8
10_GEOMETRY_CANDIDATE
100
AcDbLine
 10
44.61933333333333
 20
67.81800000000001
 30
0.0
 11
70.78133333333332
 21
108.20400000000001
 31
0.0
  0
LINE
  5
53
330
17
100
AcDbEntity
  8
10_GEOMETRY_CANDIDATE
100
AcDbLine
 10
19.727333333333334
 20
164.4226666666667
 30
0.0
 11
19.811999999999998
 21
171.2806666666667
 31
0.0
  0
LINE
  5
54
330
17
100
AcDbEntity
  8
10_GEOMETRY_CANDIDATE
100
AcDbLine
 10
19.727333333333334
 20
144.61066666666667
 30
0.0
 11
19.89666666666667
 21
154.686
 31
0.0
  0
LINE
  5
55
330
17
100
AcDbEntity
  8
10_GEOMETRY_CANDIDATE
100
AcDbLine
 10
17.864666666666665
 20
108.88133333333334
 30
0.0
 11
18.203333333333333
 21
89.7466666666667
 31
0.0
  0
LINE
  5
56
330
17
100
AcDbEntity
  8
10_GEOMETRY_CANDIDATE
100
AcDbLine
 10
20.828
 20
144.78
 30
0.0
 11
21.166666666666668
 21
154.686
 31
0.0
  0
LINE
  5
57
330
17
100
AcDbEntity
  8
10_GEOMETRY_CANDIDATE
100
AcDbLine
 10
80.94133333333333
 20
134.02733333333336
 30
0.0
 11
80.94133333333333
 21
186.09733333333332
 31
0.0
  0
LINE
  5
58
330
17
100
AcDbEntity
  8
10_GEOMETRY_CANDIDATE
100
AcDbLine
 10
5.7573333333333325
 20
183.21866666666665
 30
0.0
 11
5.7573333333333325
 21
196.34199999999998
 31
0.0
  0
LINE
  5
59
330
17
100
AcDbEntity
  8
10_GEOMETRY_CANDIDATE
100
AcDbLine
 10
83.48133333333332
 20
239.60666666666668
 30
0.0
 11
83.48133333333332
 21
270.5946666666667
 31
0.0
  0
LINE
  5
5A
330
17
100
AcDbEntity
  8
10_GEOMETRY_CANDIDATE
100
AcDbLine
 10
1.9473333333333331
 20
71.882
 30
0.0
 11
15.24
 21
106.34133333333335
 31
0.0
  0
LINE
  5
5B
330
17
100
AcDbEntity
  8
10_GEOMETRY_CANDIDATE
100
AcDbLine
 10
0.08466666666666667
 20
133.77333333333334
 30
0.0
 11
43.772666666666666
 21
133.01133333333334
 31
0.0
  0
LINE
  5
5C
330
17
100
AcDbEntity
  8
10_GEOMETRY_CANDIDATE
100
AcDbLine
 10
83.566
 20
234.01866666666666
 30
0.0
 11
83.566
 21
267.29266666666666
 31
0.0
  0
LINE
  5
5D
330
17
100
AcDbEntity
  8
10_GEOMETRY_CANDIDATE
100
AcDbLine
 10
6.265333333333333
 20
196.42666666666668
 30
0.0
 11
6.773333333333333
 21
187.28266666666667
 31
0.0
  0
LINE
  5
5E
330
17
100
AcDbEntity
  8
10_GEOMETRY_CANDIDATE
100
AcDbLine
 10
5.926666666666667
 20
38.692666666666696
 30
0.0
 11
5.926666666666667
 21
61.29866666666666
 31
0.0
  0
LINE
  5
5F
330
17
100
AcDbEntity
  8
10_GEOMETRY_CANDIDATE
100
AcDbLine
 10
39.28533333333333
 20
81.44933333333333
 30
0.0
 11
70.78133333333332
 21
81.44933333333333
 31
0.0
  0
LINE
  5
60
330
17
100
AcDbEntity
  8
10_GEOMETRY_CANDIDATE
100
AcDbLine
 10
6.773333333333333
 20
278.8073333333333
 30
0.0
 11
20.912666666666663
 21
278.8073333333333
 31
0.0
  0
LINE
  5
61
330
17
100
AcDbEntity
  8
10_GEOMETRY_CANDIDATE
100
AcDbLine
 10
83.73533333333333
 20
213.868
 30
0.0
 11
83.73533333333333
 21
241.13066666666668
 31
0.0
  0
LINE
  5
62
330
17
100
AcDbEntity
  8
10_GEOMETRY_CANDIDATE
100
AcDbLine
 10
8.297333333333333
 20
153.24666666666667
 30
0.0
 11
8.466666666666667
 21
164.084
 31
0.0
  0
LINE
  5
63
330
17
100
AcDbEntity
  8
10_GEOMETRY_CANDIDATE
100
AcDbLine
 10
17.441333333333333
 20
178.308
 30
0.0
 11
17.441333333333333
 21
187.452
 31
0.0
  0
LINE
  5
64
330
17
100
AcDbEntity
  8
10_GEOMETRY_CANDIDATE
100
AcDbLine
 10
37.083999999999996
 20
108.54266666666669
 30
0.0
 11
64.77
 21
67.47933333333333
 31
0.0
  0
LINE
  5
65
330
17
100
AcDbEntity
  8
10_GEOMETRY_CANDIDATE
100
AcDbLine
 10
9.990666666666666
 20
186.60533333333333
 30
0.0
 11
10.075333333333333
 21
194.90266666666668
 31
0.0
  0
LINE
  5
66
330
17
100
AcDbEntity
  8
10_GEOMETRY_CANDIDATE
100
AcDbLine
 10
44.45
 20
108.20400000000001
 30
0.0
 11
70.612
 21
108.20400000000001
 31
0.0
  0
LINE
  5
67
330
17
100
AcDbEntity
  8
10_GEOMETRY_CANDIDATE
100
AcDbLine
 10
17.864666666666665
 20
100.838
 30
0.0
 11
18.288
 21
108.88133333333334
 31
0.0
  0
LINE
  5
68
330
17
100
AcDbEntity
  8
10_GEOMETRY_CANDIDATE
100
AcDbLine
 10
5.672666666666666
 20
197.69666666666666
 30
0.0
 11
5.842
 21
205.57066666666668
 31
0.0
  0
LINE
  5
69
330
17
100
AcDbEntity
  8
10_GEOMETRY_CANDIDATE
100
AcDbLine
 10
9.059333333333333
 20
153.24666666666667
 30
0.0
 11
9.228666666666667
 21
164.084
 31
0.0
  0
LINE
  5
6A
330
17
100
AcDbEntity
  8
10_GEOMETRY_CANDIDATE
100
AcDbLine
 10
58.674
 20
108.71199999999999
 30
0.0
 11
70.78133333333332
 21
108.71199999999999
 31
0.0
  0
LINE
  5
6B
330
17
100
AcDbEntity
  8
10_GEOMETRY_CANDIDATE
100
AcDbLine
 10
21.674666666666667
 20
191.68533333333335
 30
0.0
 11
22.182666666666663
 21
202.26866666666666
 31
0.0
  0
LINE
  5
6C
330
17
100
AcDbEntity
  8
10_GEOMETRY_CANDIDATE
100
AcDbLine
 10
35.898666666666664
 20
115.57
 30
0.0
 11
71.71266666666666
 21
115.57
 31
0.0
  0
LINE
  5
6D
330
17
100
AcDbEntity
  8
10_GEOMETRY_CANDIDATE
100
AcDbLine
 10
5.503333333333333
 20
183.134
 30
0.0
 11
5.503333333333333
 21
196.42666666666668
 31
0.0
  0
LINE
  5
6E
330
17
100
AcDbEntity
  8
10_GEOMETRY_CANDIDATE
100
AcDbLine
 10
1.1853333333333331
 20
143.51
 30
0.0
 11
1.27
 21
151.638
 31
0.0
  0
LINE
  5
6F
330
17
100
AcDbEntity
  8
10_GEOMETRY_CANDIDATE
100
AcDbLine
 10
37.16866666666666
 20
82.1266666666667
 30
0.0
 11
70.78133333333332
 21
82.1266666666667
 31
0.0
  0
LINE
  5
70
330
17
100
AcDbEntity
  8
10_GEOMETRY_CANDIDATE
100
AcDbLine
 10
2.0319999999999996
 20
195.15666666666667
 30
0.0
 11
2.1166666666666667
 21
203.53866666666664
 31
0.0
  0
LINE
  5
71
330
17
100
AcDbEntity
  8
10_GEOMETRY_CANDIDATE
100
AcDbLine
 10
35.898666666666664
 20
115.73933333333335
 30
0.0
 11
71.79733333333333
 21
115.73933333333335
 31
0.0
  0
LINE
  5
72
330
17
100
AcDbEntity
  8
10_GEOMETRY_CANDIDATE
100
AcDbLine
 10
80.17933333333333
 20
236.55866666666668
 30
0.0
 11
80.17933333333333
 21
272.288
 31
0.0
  0
LINE
  5
73
330
17
100
AcDbEntity
  8
10_GEOMETRY_CANDIDATE
100
AcDbLine
 10
24.722666666666665
 20
277.96066666666667
 30
0.0
 11
53.17066666666666
 21
278.46866666666665
 31
0.0
  0
LINE
  5
74
330
17
100
AcDbEntity
  8
10_GEOMETRY_CANDIDATE
100
AcDbLine
 10
37.16866666666666
 20
108.11933333333334
 30
0.0
 11
70.69666666666667
 21
108.11933333333334
 31
0.0
  0
LINE
  5
75
330
17
100
AcDbEntity
  8
10_GEOMETRY_CANDIDATE
100
AcDbLine
 10
18.034
 20
189.48399999999998
 30
0.0
 11
18.457333333333334
 21
200.23666666666668
 31
0.0
  0
LINE
  5
76
330
17
100
AcDbEntity
  8
10_GEOMETRY_CANDIDATE
100
AcDbLine
 10
16.933333333333334
 20
200.23666666666668
 30
0.0
 11
17.102666666666664
 21
189.31466666666665
 31
0.0
  0
LINE
  5
77
330
17
100
AcDbEntity
  8
10_GEOMETRY_CANDIDATE
100
AcDbLine
 10
29.972
 20
246.63400000000001
 30
0.0
 11
49.95333333333333
 21
225.89066666666668
 31
0.0
  0
LINE
  5
78
330
17
100
AcDbEntity
  8
10_GEOMETRY_CANDIDATE
100
AcDbLine
 10
17.525999999999996
 20
173.228
 30
0.0
 11
17.78
 21
187.3673333333333
 31
0.0
  0
LINE
  5
79
330
17
100
AcDbEntity
  8
10_GEOMETRY_CANDIDATE
100
AcDbLine
 10
21.928666666666665
 20
191.68533333333335
 30
0.0
 11
22.52133333333333
 21
202.26866666666666
 31
0.0
  0
LINE
  5
7A
330
17
100
AcDbEntity
  8
10_GEOMETRY_CANDIDATE
100
AcDbLine
 10
37.16866666666666
 20
108.03466666666668
 30
0.0
 11
70.78133333333332
 21
108.03466666666668
 31
0.0
  0
LINE
  5
7B
330
17
100
AcDbEntity
  8
10_GEOMETRY_CANDIDATE
100
AcDbLine
 10
36.99933333333333
 20
108.54266666666669
 30
0.0
 11
66.97133333333332
 21
108.54266666666669
 31
0.0
  0
LINE
  5
7C
330
17
100
AcDbEntity
  8
10_GEOMETRY_CANDIDATE
100
AcDbLine
 10
20.32
 20
179.15466666666669
 30
0.0
 11
20.573999999999998
 21
189.23000000000002
 31
0.0
  0
LINE
  5
7D
330
17
100
AcDbEntity
  8
10_GEOMETRY_CANDIDATE
100
AcDbLine
 10
17.272
 20
173.14333333333335
 30
0.0
 11
17.272
 21
187.53666666666666
 31
0.0
  0
LINE
  5
7E
330
17
100
AcDbEntity
  8
10_GEOMETRY_CANDIDATE
100
AcDbLine
 10
4.572
 20
143.42533333333333
 30
0.0
 11
4.656666666666666
 21
151.72266666666667
 31
0.0
  0
LINE
  5
7F
330
17
100
AcDbEntity
  8
10_GEOMETRY_CANDIDATE
100
AcDbLine
 10
5.587999999999999
 20
183.21866666666665
 30
0.0
 11
5.587999999999999
 21
196.34199999999998
 31
0.0
  0
LINE
  5
80
330
17
100
AcDbEntity
  8
10_GEOMETRY_CANDIDATE
100
AcDbLine
 10
8.805333333333333
 20
153.24666666666667
 30
0.0
 11
8.974666666666666
 21
164.084
 31
0.0
  0
LINE
  5
81
330
17
100
AcDbEntity
  8
10_GEOMETRY_CANDIDATE
100
AcDbLine
 10
80.264
 20
231.73266666666666
 30
0.0
 11
80.264
 21
268.478
 31
0.0
  0
LINE
  5
82
330
17
100
AcDbEntity
  8
10_GEOMETRY_CANDIDATE
100
AcDbLine
 10
16.679333333333332
 20
181.94866666666667
 30
0.0
 11
16.848666666666666
 21
172.97400000000002
 31
0.0
  0
LINE
  5
83
330
17
100
AcDbEntity
  8
10_GEOMETRY_CANDIDATE
100
AcDbLine
 10
20.150666666666666
 20
191.68533333333335
 30
0.0
 11
20.32
 21
202.35333333333335
 31
0.0
  0
LINE
  5
84
330
17
100
AcDbEntity
  8
10_GEOMETRY_CANDIDATE
100
AcDbLine
 10
21.75933333333333
 20
191.68533333333335
 30
0.0
 11
22.267333333333333
 21
202.26866666666666
 31
0.0
  0
LINE
  5
85
330
17
100
AcDbEntity
  8
10_GEOMETRY_CANDIDATE
100
AcDbLine
 10
0.0
 20
91.10133333333334
 30
0.0
 11
13.97
 21
59.77466666666666
 31
0.0
  0
LINE
  5
86
330
17
100
AcDbEntity
  8
10_GEOMETRY_CANDIDATE
100
AcDbLine
 10
21.843999999999998
 20
191.68533333333335
 30
0.0
 11
22.351999999999997
 21
202.26866666666666
 31
0.0
  0
LINE
  5
87
330
17
100
AcDbEntity
  8
10_GEOMETRY_CANDIDATE
100
AcDbLine
 10
8.636
 20
153.24666666666667
 30
0.0
 11
8.805333333333333
 21
164.084
 31
0.0
  0
LINE
  5
88
330
17
100
AcDbEntity
  8
10_GEOMETRY_CANDIDATE
100
AcDbLine
 10
84.24333333333334
 20
133.35
 30
0.0
 11
84.24333333333334
 21
141.22400000000002
 31
0.0
  0
LINE
  5
89
330
17
100
AcDbEntity
  8
10_GEOMETRY_CANDIDATE
100
AcDbLine
 10
70.69666666666667
 20
81.36466666666666
 30
0.0
 11
70.69666666666667
 21
108.62733333333335
 31
0.0
  0
LINE
  5
8A
330
17
100
AcDbEntity
  8
10_GEOMETRY_CANDIDATE
100
AcDbLine
 10
20.235333333333333
 20
144.69533333333334
 30
0.0
 11
20.997333333333334
 21
154.686
 31
0.0
  0
LINE
  5
8B
330
17
100
AcDbEntity
  8
10_GEOMETRY_CANDIDATE
100
AcDbLine
 10
66.88666666666667
 20
278.638
 30
0.0
 11
78.82466666666666
 21
278.892
 31
0.0
  0
LINE
  5
8C
330
17
100
AcDbEntity
  8
10_GEOMETRY_CANDIDATE
100
AcDbLine
 10
31.834666666666667
 20
80.17933333333332
 30
0.0
 11
31.834666666666667
 21
109.38933333333335
 31
0.0
  0
LINE
  5
8D
330
17
100
AcDbEntity
  8
10_GEOMETRY_CANDIDATE
100
AcDbLine
 10
9.482666666666665
 20
194.90266666666668
 30
0.0
 11
9.736666666666666
 21
186.52066666666667
 31
0.0
  0
LINE
  5
8E
330
17
100
AcDbEntity
  8
10_GEOMETRY_CANDIDATE
100
AcDbLine
 10
4.7413333333333325
 20
161.29
 30
0.0
 11
5.842
 21
145.20333333333335
 31
0.0
  0
LINE
  5
8F
330
17
100
AcDbEntity
  8
10_GEOMETRY_CANDIDATE
100
AcDbLine
 10
19.981333333333332
 20
144.61066666666667
 30
0.0
 11
20.32
 21
154.686
 31
0.0
  0
LINE
  5
90
330
17
100
AcDbEntity
  8
10_GEOMETRY_CANDIDATE
100
AcDbLine
 10
1.778
 20
203.03066666666666
 30
0.0
 11
2.455333333333333
 21
194.9873333333333
 31
0.0
  0
LINE
  5
91
330
17
100
AcDbEntity
  8
10_GEOMETRY_CANDIDATE
100
AcDbLine
 10
16.171333333333333
 20
147.574
 30
0.0
 11
16.255999999999997
 21
154.94
 31
0.0
  0
LINE
  5
92
330
17
100
AcDbEntity
  8
10_GEOMETRY_CANDIDATE
100
AcDbLine
 10
80.09466666666665
 20
244.43266666666665
 30
0.0
 11
80.09466666666665
 21
279.48466666666667
 31
0.0
  0
LINE
  5
93
330
17
100
AcDbEntity
  8
10_GEOMETRY_CANDIDATE
100
AcDbLine
 10
37.93066666666666
 20
108.62733333333335
 30
0.0
 11
42.84133333333333
 21
77.63933333333333
 31
0.0
  0
LINE
  5
94
330
17
100
AcDbEntity
  8
10_GEOMETRY_CANDIDATE
100
AcDbLine
 10
6.011333333333333
 20
183.21866666666665
 30
0.0
 11
6.011333333333333
 21
196.42666666666668
 31
0.0
  0
LINE
  5
95
330
17
100
AcDbEntity
  8
10_GEOMETRY_CANDIDATE
100
AcDbLine
 10
31.75
 20
80.26400000000001
 30
0.0
 11
31.75
 21
109.38933333333335
 31
0.0
  0
LINE
  5
96
330
17
100
AcDbEntity
  8
10_GEOMETRY_CANDIDATE
100
AcDbLine
 10
25.31533333333333
 20
165.1846666666667
 30
0.0
 11
25.484666666666666
 21
174.752
 31
0.0
  0
LINE
  5
97
330
17
100
AcDbEntity
  8
10_GEOMETRY_CANDIDATE
100
AcDbLine
 10
19.89666666666667
 20
178.64666666666668
 30
0.0
 11
20.235333333333333
 21
189.23000000000002
 31
0.0
  0
LINE
  5
98
330
17
100
AcDbEntity
  8
10_GEOMETRY_CANDIDATE
100
AcDbLine
 10
9.905999999999999
 20
186.60533333333333
 30
0.0
 11
9.990666666666666
 21
194.90266666666668
 31
0.0
  0
LINE
  5
99
330
17
100
AcDbEntity
  8
10_GEOMETRY_CANDIDATE
100
AcDbLine
 10
53.34
 20
109.72800000000001
 30
0.0
 11
58.166
 21
63.584666666666664
 31
0.0
  0
LINE
  5
9A
330
17
100
AcDbEntity
  8
10_GEOMETRY_CANDIDATE
100
AcDbLine
 10
23.537333333333333
 20
150.19866666666667
 30
0.0
 11
24.045333333333332
 21
160.27400000000003
 31
0.0
  0
LINE
  5
9B
330
17
100
AcDbEntity
  8
10_GEOMETRY_CANDIDATE
100
AcDbLine
 10
20.573999999999998
 20
144.78
 30
0.0
 11
21.081999999999997
 21
154.686
 31
0.0
  0
LINE
  5
9C
330
17
100
AcDbEntity
  8
10_GEOMETRY_CANDIDATE
100
AcDbLine
 10
8.89
 20
186.35133333333334
 30
0.0
 11
9.059333333333333
 21
194.90266666666668
 31
0.0
  0
LINE
  5
9D
330
17
100
AcDbEntity
  8
10_GEOMETRY_CANDIDATE
100
AcDbLine
 10
83.65066666666665
 20
228.17666666666668
 30
0.0
 11
83.65066666666665
 21
254.0
 31
0.0
  0
LINE
  5
9E
330
17
100
AcDbEntity
  8
10_GEOMETRY_CANDIDATE
100
AcDbLine
 10
13.631333333333332
 20
60.28266666666664
 30
0.0
 11
17.017999999999997
 21
108.88133333333334
 31
0.0
  0
LINE
  5
9F
330
17
100
AcDbEntity
  8
10_GEOMETRY_CANDIDATE
100
AcDbLine
 10
64.68533333333333
 20
46.3126666666667
 30
0.0
 11
64.68533333333333
 21
70.69666666666669
 31
0.0
  0
LINE
  5
A0
330
17
100
AcDbEntity
  8
10_GEOMETRY_CANDIDATE
100
AcDbLine
 10
6.265333333333333
 20
183.21866666666665
 30
0.0
 11
6.434666666666666
 21
192.95533333333333
 31
0.0
  0
LINE
  5
A1
330
17
100
AcDbEntity
  8
10_GEOMETRY_CANDIDATE
100
AcDbLine
 10
64.77
 20
46.3126666666667
 30
0.0
 11
64.77
 21
71.54333333333335
 31
0.0
  0
LINE
  5
A2
330
17
100
AcDbEntity
  8
10_GEOMETRY_CANDIDATE
100
AcDbLine
 10
35.81399999999999
 20
115.65466666666669
 30
0.0
 11
71.79733333333333
 21
115.65466666666669
 31
0.0
  0
LINE
  5
A3
330
17
100
AcDbEntity
  8
10_GEOMETRY_CANDIDATE
100
AcDbLine
 10
8.466666666666667
 20
153.24666666666667
 30
0.0
 11
8.636
 21
164.084
 31
0.0
  0
LINE
  5
A4
330
17
100
AcDbEntity
  8
10_GEOMETRY_CANDIDATE
100
AcDbLine
 10
20.066
 20
144.69533333333334
 30
0.0
 11
20.48933333333333
 21
153.24666666666667
 31
0.0
  0
LINE
  5
A5
330
17
100
AcDbEntity
  8
10_GEOMETRY_CANDIDATE
100
AcDbLine
 10
3.1326666666666667
 20
195.24133333333333
 30
0.0
 11
3.3019999999999996
 21
203.70800000000003
 31
0.0
  0
LINE
  5
A6
330
17
100
AcDbEntity
  8
10_GEOMETRY_CANDIDATE
100
AcDbLine
 10
37.59199999999999
 20
81.28000000000003
 30
0.0
 11
37.59199999999999
 21
108.62733333333335
 31
0.0
  0
LINE
  5
A7
330
17
100
AcDbEntity
  8
10_GEOMETRY_CANDIDATE
100
AcDbLine
 10
16.848666666666666
 20
198.54333333333335
 30
0.0
 11
16.933333333333334
 21
189.31466666666665
 31
0.0
  0
LINE
  5
A8
330
17
100
AcDbEntity
  8
10_GEOMETRY_CANDIDATE
100
AcDbLine
 10
20.48933333333333
 20
179.15466666666669
 30
0.0
 11
20.658666666666665
 21
189.23000000000002
 31
0.0
  0
LINE
  5
A9
330
17
100
AcDbEntity
  8
10_GEOMETRY_CANDIDATE
100
AcDbLine
 10
37.16866666666666
 20
81.95733333333334
 30
0.0
 11
70.78133333333332
 21
81.95733333333334
 31
0.0
  0
LINE
  5
AA
330
17
100
AcDbEntity
  8
10_GEOMETRY_CANDIDATE
100
AcDbLine
 10
20.912666666666663
 20
144.78
 30
0.0
 11
21.25133333333333
 21
154.60133333333334
 31
0.0
  0
LINE
  5
AB
330
17
100
AcDbEntity
  8
10_GEOMETRY_CANDIDATE
100
AcDbLine
 10
17.18733333333333
 20
173.14333333333335
 30
0.0
 11
17.18733333333333
 21
187.62133333333333
 31
0.0
  0
LINE
  5
AC
330
17
100
AcDbEntity
  8
10_GEOMETRY_CANDIDATE
100
AcDbLine
 10
10.075333333333333
 20
187.452
 30
0.0
 11
10.16
 21
194.818
 31
0.0
  0
LINE
  5
AD
330
17
100
AcDbEntity
  8
10_GEOMETRY_CANDIDATE
100
AcDbLine
 10
37.083999999999996
 20
108.62733333333335
 30
0.0
 11
70.78133333333332
 21
108.62733333333335
 31
0.0
  0
LINE
  5
AE
330
17
100
AcDbEntity
  8
10_GEOMETRY_CANDIDATE
100
AcDbLine
 10
37.16866666666666
 20
107.94999999999999
 30
0.0
 11
62.31466666666666
 21
107.94999999999999
 31
0.0
  0
LINE
  5
AF
330
17
100
AcDbEntity
  8
10_GEOMETRY_CANDIDATE
100
AcDbLine
 10
8.212666666666665
 20
153.33133333333333
 30
0.0
 11
8.297333333333333
 21
161.1206666666667
 31
0.0
  0
LINE
  5
B0
330
17
100
AcDbEntity
  8
10_GEOMETRY_CANDIDATE
100
AcDbLine
 10
84.41266666666667
 20
157.3106666666667
 30
0.0
 11
84.41266666666667
 21
172.72
 31
0.0
  0
LINE
  5
B1
330
17
100
AcDbEntity
  8
10_GEOMETRY_CANDIDATE
100
AcDbLine
 10
9.567333333333332
 20
171.704
 30
0.0
 11
9.652
 21
178.47733333333335
 31
0.0
  0
LINE
  5
B2
330
17
100
AcDbEntity
  8
10_GEOMETRY_CANDIDATE
100
AcDbLine
 10
18.541999999999998
 20
86.106
 30
0.0
 11
18.626666666666665
 21
76.53866666666667
 31
0.0
  0
LINE
  5
B3
330
17
100
AcDbEntity
  8
10_GEOMETRY_CANDIDATE
100
AcDbLine
 10
80.01
 20
255.27
 30
0.0
 11
80.01
 21
279.48466666666667
 31
0.0
  0
LINE
  5
B4
330
17
100
AcDbEntity
  8
10_GEOMETRY_CANDIDATE
100
AcDbLine
 10
5.418666666666667
 20
162.56
 30
0.0
 11
5.418666666666667
 21
172.0426666666667
 31
0.0
  0
LINE
  5
B5
330
17
100
AcDbEntity
  8
10_GEOMETRY_CANDIDATE
100
AcDbLine
 10
37.67666666666667
 20
81.28000000000003
 30
0.0
 11
37.67666666666667
 21
108.458
 31
0.0
  0
LINE
  5
B6
330
17
100
AcDbEntity
  8
10_GEOMETRY_CANDIDATE
100
AcDbLine
 10
21.505333333333333
 20
191.68533333333335
 30
0.0
 11
21.843999999999998
 21
202.26866666666666
 31
0.0
  0
LINE
  5
B7
330
17
100
AcDbEntity
  8
10_GEOMETRY_CANDIDATE
100
AcDbLine
 10
2.7939999999999996
 20
194.9873333333333
 30
0.0
 11
3.048
 21
203.70800000000003
 31
0.0
  0
LINE
  5
B8
330
17
100
AcDbEntity
  8
10_GEOMETRY_CANDIDATE
100
AcDbLine
 10
29.802666666666664
 20
246.63400000000001
 30
0.0
 11
52.74733333333333
 21
222.84266666666667
 31
0.0
  0
LINE
  5
B9
330
17
100
AcDbEntity
  8
10_GEOMETRY_CANDIDATE
100
AcDbLine
 10
37.16866666666666
 20
82.042
 30
0.0
 11
70.78133333333332
 21
82.042
 31
0.0
  0
LINE
  5
BA
330
17
100
AcDbEntity
  8
10_GEOMETRY_CANDIDATE
100
AcDbLine
 10
25.654
 20
188.12933333333336
 30
0.0
 11
26.246666666666666
 21
200.99866666666668
 31
0.0
  0
LINE
  5
BB
330
17
100
AcDbEntity
  8
10_GEOMETRY_CANDIDATE
100
AcDbLine
 10
5.503333333333333
 20
172.0426666666667
 30
0.0
 11
5.672666666666666
 21
162.56
 31
0.0
  0
LINE
  5
BC
330
17
100
AcDbEntity
  8
10_GEOMETRY_CANDIDATE
100
AcDbLine
 10
84.49733333333333
 20
141.81666666666666
 30
0.0
 11
84.49733333333333
 21
155.19400000000002
 31
0.0
  0
LINE
  5
BD
330
17
100
AcDbEntity
  8
10_GEOMETRY_CANDIDATE
100
AcDbLine
 10
17.102666666666664
 20
173.14333333333335
 30
0.0
 11
17.102666666666664
 21
183.388
 31
0.0
  0
LINE
  5
BE
330
17
100
AcDbEntity
  8
10_GEOMETRY_CANDIDATE
100
AcDbLine
 10
84.07399999999998
 20
136.31333333333333
 30
0.0
 11
84.07399999999998
 21
191.60066666666665
 31
0.0
  0
LINE
  5
BF
330
17
100
AcDbEntity
  8
10_GEOMETRY_CANDIDATE
100
AcDbLine
 10
28.448
 20
196.68066666666664
 30
0.0
 11
42.163999999999994
 21
196.93466666666666
 31
0.0
  0
LINE
  5
C0
330
17
100
AcDbEntity
  8
10_GEOMETRY_CANDIDATE
100
AcDbLine
 10
25.484666666666666
 20
190.246
 30
0.0
 11
25.992666666666665
 21
199.98266666666666
 31
0.0
  0
LINE
  5
C1
330
17
100
AcDbEntity
  8
10_GEOMETRY_CANDIDATE
100
AcDbLine
 10
17.356666666666666
 20
178.308
 30
0.0
 11
17.356666666666666
 21
187.53666666666666
 31
0.0
  0
LINE
  5
C2
330
17
100
AcDbEntity
  8
10_GEOMETRY_CANDIDATE
100
AcDbLine
 10
4.7413333333333325
 20
158.15733333333336
 30
0.0
 11
5.7573333333333325
 21
145.62666666666667
 31
0.0
  0
LINE
  5
C3
330
17
100
AcDbEntity
  8
10_GEOMETRY_CANDIDATE
100
AcDbLine
 10
15.748
 20
146.558
 30
0.0
 11
16.002
 21
154.686
 31
0.0
  0
LINE
  5
C4
330
17
100
AcDbEntity
  8
10_GEOMETRY_CANDIDATE
100
AcDbLine
 10
39.28533333333333
 20
100.16066666666669
 30
0.0
 11
43.60333333333333
 21
73.23666666666668
 31
0.0
  0
LINE
  5
C5
330
17
100
AcDbEntity
  8
10_GEOMETRY_CANDIDATE
100
AcDbLine
 10
84.32799999999999
 20
168.148
 30
0.0
 11
84.32799999999999
 21
197.01933333333335
 31
0.0
  0
LINE
  5
C6
330
17
100
AcDbEntity
  8
10_GEOMETRY_CANDIDATE
100
AcDbLine
 10
6.265333333333333
 20
163.74533333333332
 30
0.0
 11
6.265333333333333
 21
171.78866666666667
 31
0.0
  0
LINE
  5
C7
330
17
100
AcDbEntity
  8
10_GEOMETRY_CANDIDATE
100
AcDbLine
 10
36.91466666666667
 20
81.36466666666666
 30
0.0
 11
70.612
 21
81.36466666666666
 31
0.0
  0
LINE
  5
C8
330
17
100
AcDbEntity
  8
10_GEOMETRY_CANDIDATE
100
AcDbLine
 10
6.096
 20
184.82733333333334
 30
0.0
 11
6.096
 21
196.42666666666668
 31
0.0
  0
LINE
  5
C9
330
17
100
AcDbEntity
  8
10_GEOMETRY_CANDIDATE
100
AcDbLine
 10
6.180666666666666
 20
183.21866666666665
 30
0.0
 11
6.180666666666666
 21
196.42666666666668
 31
0.0
  0
LINE
  5
CA
330
17
100
AcDbEntity
  8
10_GEOMETRY_CANDIDATE
100
AcDbLine
 10
5.249333333333333
 20
143.42533333333333
 30
0.0
 11
5.249333333333333
 21
150.96066666666667
 31
0.0
  0
LINE
  5
CB
330
17
100
AcDbEntity
  8
10_GEOMETRY_CANDIDATE
100
AcDbLine
 10
21.420666666666666
 20
179.15466666666669
 30
0.0
 11
22.013333333333332
 21
189.23000000000002
 31
0.0
  0
LINE
  5
CC
330
17
100
AcDbEntity
  8
10_GEOMETRY_CANDIDATE
100
AcDbLine
 10
20.573999999999998
 20
202.35333333333335
 30
0.0
 11
20.743333333333332
 21
190.66933333333333
 31
0.0
  0
LINE
  5
CD
330
17
100
AcDbEntity
  8
10_GEOMETRY_CANDIDATE
100
AcDbLine
 10
9.313333333333333
 20
186.60533333333333
 30
0.0
 11
9.397999999999998
 21
194.90266666666668
 31
0.0
  0
LINE
  5
CE
330
17
100
AcDbEntity
  8
10_GEOMETRY_CANDIDATE
100
AcDbLine
 10
0.08466666666666667
 20
67.14066666666668
 30
0.0
 11
12.615333333333332
 21
99.73733333333334
 31
0.0
  0
LINE
  5
CF
330
17
100
AcDbEntity
  8
10_GEOMETRY_CANDIDATE
100
AcDbLine
 10
2.9633333333333334
 20
194.9873333333333
 30
0.0
 11
3.048
 21
202.09933333333333
 31
0.0
  0
LINE
  5
D0
330
17
100
AcDbEntity
  8
10_GEOMETRY_CANDIDATE
100
AcDbLine
 10
25.484666666666666
 20
180.17066666666668
 30
0.0
 11
25.992666666666665
 21
188.976
 31
0.0
  0
LINE
  5
D1
330
17
100
AcDbEntity
  8
10_GEOMETRY_CANDIDATE
100
AcDbLine
 10
6.434666666666666
 20
183.30333333333334
 30
0.0
 11
6.519333333333333
 21
190.754
 31
0.0
  0
LINE
  5
D2
330
17
100
AcDbEntity
  8
10_GEOMETRY_CANDIDATE
100
AcDbLine
 10
1.27
 20
69.34199999999998
 30
0.0
 11
14.308666666666666
 21
99.90666666666667
 31
0.0
  0
LINE
  5
D3
330
17
100
AcDbEntity
  8
10_GEOMETRY_CANDIDATE
100
AcDbLine
 10
18.034
 20
95.33466666666666
 30
0.0
 11
18.118666666666666
 21
87.29133333333334
 31
0.0
  0
LINE
  5
D4
330
17
100
AcDbEntity
  8
10_GEOMETRY_CANDIDATE
100
AcDbLine
 10
0.0
 20
115.99333333333334
 30
0.0
 11
19.558
 21
115.99333333333334
 31
0.0
  0
LINE
  5
D5
330
17
100
AcDbEntity
  8
10_GEOMETRY_CANDIDATE
100
AcDbLine
 10
25.31533333333333
 20
190.33066666666667
 30
0.0
 11
25.823333333333334
 21
199.98266666666666
 31
0.0
  0
LINE
  5
D6
330
17
100
AcDbEntity
  8
10_GEOMETRY_CANDIDATE
100
AcDbLine
 10
6.434666666666666
 20
40.64000000000004
 30
0.0
 11
6.8580000000000005
 21
48.51400000000001
 31
0.0
  0
LINE
  5
D7
330
17
100
AcDbEntity
  8
10_GEOMETRY_CANDIDATE
100
AcDbLine
 10
16.171333333333333
 20
310.47266666666667
 30
0.0
 11
46.736
 21
310.47266666666667
 31
0.0
  0
LINE
  5
D8
330
17
100
AcDbEntity
  8
10_GEOMETRY_CANDIDATE
100
AcDbLine
 10
44.70399999999999
 20
67.90266666666665
 30
0.0
 11
68.83399999999999
 21
82.97333333333336
 31
0.0
  0
LINE
  5
D9
330
17
100
AcDbEntity
  8
10_GEOMETRY_CANDIDATE
100
AcDbLine
 10
22.098
 20
193.37866666666667
 30
0.0
 11
22.52133333333333
 21
202.184
 31
0.0
  0
LINE
  5
DA
330
17
100
AcDbEntity
  8
10_GEOMETRY_CANDIDATE
100
AcDbLine
 10
70.10399999999998
 20
95.92733333333334
 30
0.0
 11
70.35799999999999
 21
105.57933333333335
 31
0.0
  0
LINE
  5
DB
330
17
100
AcDbEntity
  8
10_GEOMETRY_CANDIDATE
100
AcDbLine
 10
14.477999999999998
 20
42.5026666666667
 30
0.0
 11
14.647333333333332
 21
51.22333333333336
 31
0.0
  0
LINE
  5
DC
330
17
100
AcDbEntity
  8
10_GEOMETRY_CANDIDATE
100
AcDbLine
 10
5.334
 20
78.65533333333332
 30
0.0
 11
17.017999999999997
 21
106.172
 31
0.0
  0
LINE
  5
DD
330
17
100
AcDbEntity
  8
10_GEOMETRY_CANDIDATE
100
AcDbLine
 10
2.7939999999999996
 20
179.324
 30
0.0
 11
3.1326666666666667
 21
189.14533333333333
 31
0.0
  0
LINE
  5
DE
330
17
100
AcDbEntity
  8
10_GEOMETRY_CANDIDATE
100
AcDbLine
 10
25.230666666666664
 20
165.26933333333335
 30
0.0
 11
25.230666666666664
 21
174.83666666666667
 31
0.0
  0
LINE
  5
DF
330
17
100
AcDbEntity
  8
10_GEOMETRY_CANDIDATE
100
AcDbLine
 10
77.80866666666667
 20
42.58733333333333
 30
0.0
 11
77.80866666666667
 21
50.71533333333332
 31
0.0
  0
LINE
  5
E0
330
17
100
AcDbEntity
  8
10_GEOMETRY_CANDIDATE
100
AcDbLine
 10
17.525999999999996
 20
174.83666666666667
 30
0.0
 11
17.525999999999996
 21
187.452
 31
0.0
  0
LINE
  5
E1
330
17
100
AcDbEntity
  8
10_GEOMETRY_CANDIDATE
100
AcDbLine
 10
5.587999999999999
 20
172.0426666666667
 30
0.0
 11
5.7573333333333325
 21
162.56
 31
0.0
  0
LINE
  5
E2
330
17
100
AcDbEntity
  8
10_GEOMETRY_CANDIDATE
100
AcDbLine
 10
37.76133333333333
 20
81.19533333333334
 30
0.0
 11
37.76133333333333
 21
108.458
 31
0.0
  0
LINE
  5
E3
330
17
100
AcDbEntity
  8
10_GEOMETRY_CANDIDATE
100
AcDbLine
 10
1.27
 20
162.13666666666666
 30
0.0
 11
1.6933333333333334
 21
175.34466666666668
 31
0.0
  0
LINE
  5
E4
330
17
100
AcDbEntity
  8
10_GEOMETRY_CANDIDATE
100
AcDbLine
 10
47.413333333333334
 20
72.644
 30
0.0
 11
68.83399999999999
 21
108.28866666666667
 31
0.0
  0
LINE
  5
E5
330
17
100
AcDbEntity
  8
10_GEOMETRY_CANDIDATE
100
AcDbLine
 10
83.39666666666666
 20
254.0
 30
0.0
 11
83.39666666666666
 21
277.4526666666667
 31
0.0
  0
LINE
  5
E6
330
17
100
AcDbEntity
  8
10_GEOMETRY_CANDIDATE
100
AcDbLine
 10
0.8466666666666667
 20
143.764
 30
0.0
 11
1.1853333333333331
 21
151.72266666666667
 31
0.0
  0
LINE
  5
E7
330
17
100
AcDbEntity
  8
10_GEOMETRY_CANDIDATE
100
AcDbLine
 10
65.532
 20
46.99000000000001
 30
0.0
 11
65.95533333333333
 21
55.625999999999976
 31
0.0
  0
LINE
  5
E8
330
17
100
AcDbEntity
  8
10_GEOMETRY_CANDIDATE
100
AcDbLine
 10
25.061333333333334
 20
145.542
 30
0.0
 11
25.061333333333334
 21
162.39066666666668
 31
0.0
  0
LINE
  5
E9
330
17
100
AcDbEntity
  8
10_GEOMETRY_CANDIDATE
100
AcDbLine
 10
21.75933333333333
 20
179.15466666666669
 30
0.0
 11
22.267333333333333
 21
189.23000000000002
 31
0.0
  0
LINE
  5
EA
330
17
100
AcDbEntity
  8
10_GEOMETRY_CANDIDATE
100
AcDbLine
 10
4.7413333333333325
 20
151.80733333333336
 30
0.0
 11
5.418666666666667
 21
143.51
 31
0.0
  0
LINE
  5
EB
330
17
100
AcDbEntity
  8
10_GEOMETRY_CANDIDATE
100
AcDbLine
 10
0.0
 20
278.13
 30
0.0
 11
14.562666666666667
 21
278.384
 31
0.0
  0
LINE
  5
EC
330
17
100
AcDbEntity
  8
10_GEOMETRY_CANDIDATE
100
AcDbLine
 10
44.788666666666664
 20
68.072
 30
0.0
 11
70.78133333333332
 21
84.92066666666668
 31
0.0
  0
LINE
  5
ED
330
17
100
AcDbEntity
  8
10_GEOMETRY_CANDIDATE
100
AcDbLine
 10
24.637999999999998
 20
190.246
 30
0.0
 11
24.637999999999998
 21
197.01933333333335
 31
0.0
  0
LINE
  5
EE
330
17
100
AcDbEntity
  8
10_GEOMETRY_CANDIDATE
100
AcDbLine
 10
1.1006666666666667
 20
162.22133333333335
 30
0.0
 11
1.4393333333333331
 21
172.29666666666668
 31
0.0
  0
LINE
  5
EF
330
17
100
AcDbEntity
  8
10_GEOMETRY_CANDIDATE
100
AcDbLine
 10
23.452666666666666
 20
145.79600000000002
 30
0.0
 11
23.960666666666665
 21
155.95600000000002
 31
0.0
  0
LINE
  5
F0
330
17
100
AcDbEntity
  8
10_GEOMETRY_CANDIDATE
100
AcDbLine
 10
0.0
 20
116.078
 30
0.0
 11
19.473333333333333
 21
116.078
 31
0.0
  0
LINE
  5
F1
330
17
100
AcDbEntity
  8
10_GEOMETRY_CANDIDATE
100
AcDbLine
 10
3.048
 20
195.072
 30
0.0
 11
3.217333333333333
 21
203.70800000000003
 31
0.0
  0
LINE
  5
F2
330
17
100
AcDbEntity
  8
10_GEOMETRY_CANDIDATE
100
AcDbLine
 10
20.150666666666666
 20
144.69533333333334
 30
0.0
 11
20.658666666666665
 21
154.60133333333334
 31
0.0
  0
LINE
  5
F3
330
17
100
AcDbEntity
  8
10_GEOMETRY_CANDIDATE
100
AcDbLine
 10
77.63933333333333
 20
219.87933333333334
 30
0.0
 11
77.63933333333333
 21
226.99133333333333
 31
0.0
  0
LINE
  5
F4
330
17
100
AcDbEntity
  8
10_GEOMETRY_CANDIDATE
100
AcDbLine
 10
20.48933333333333
 20
144.78
 30
0.0
 11
20.912666666666663
 21
153.162
 31
0.0
  0
LINE
  5
F5
330
17
100
AcDbEntity
  8
10_GEOMETRY_CANDIDATE
100
AcDbLine
 10
7.704666666666667
 20
133.77333333333334
 30
0.0
 11
23.79133333333333
 21
133.51933333333335
 31
0.0
  0
LINE
  5
F6
330
17
100
AcDbEntity
  8
10_GEOMETRY_CANDIDATE
100
AcDbLine
 10
6.773333333333333
 20
84.15866666666668
 30
0.0
 11
16.255999999999997
 21
108.88133333333334
 31
0.0
  0
LINE
  5
F7
330
17
100
AcDbEntity
  8
10_GEOMETRY_CANDIDATE
100
AcDbLine
 10
13.207999999999998
 20
187.198
 30
0.0
 11
13.377333333333333
 21
174.49800000000002
 31
0.0
  0
LINE
  5
F8
330
17
100
AcDbEntity
  8
10_GEOMETRY_CANDIDATE
100
AcDbLine
 10
8.89
 20
153.24666666666667
 30
0.0
 11
9.059333333333333
 21
164.084
 31
0.0
  0
LINE
  5
F9
330
17
100
AcDbEntity
  8
10_GEOMETRY_CANDIDATE
100
AcDbLine
 10
0.0
 20
196.08800000000002
 30
0.0
 11
7.281333333333333
 21
196.17266666666666
 31
0.0
  0
LINE
  5
FA
330
17
100
AcDbEntity
  8
10_GEOMETRY_CANDIDATE
100
AcDbLine
 10
16.933333333333334
 20
310.5573333333333
 30
0.0
 11
46.736
 21
310.5573333333333
 31
0.0
  0
LINE
  5
FB
330
17
100
AcDbEntity
  8
10_GEOMETRY_CANDIDATE
100
AcDbLine
 10
0.0
 20
90.93199999999999
 30
0.0
 11
13.885333333333332
 21
59.690000000000026
 31
0.0
  0
LINE
  5
FC
330
17
100
AcDbEntity
  8
10_GEOMETRY_CANDIDATE
100
AcDbLine
 10
54.94866666666666
 20
85.42866666666666
 30
0.0
 11
68.66466666666666
 21
108.28866666666667
 31
0.0
  0
LINE
  5
FD
330
17
100
AcDbEntity
  8
10_GEOMETRY_CANDIDATE
100
AcDbLine
 10
64.60066666666667
 20
25.653999999999996
 30
0.0
 11
65.02399999999999
 21
34.54400000000004
 31
0.0
  0
LINE
  5
FE
330
17
100
AcDbEntity
  8
10_GEOMETRY_CANDIDATE
100
AcDbLine
 10
41.91
 20
87.71466666666666
 30
0.0
 11
44.788666666666664
 21
67.73333333333335
 31
0.0
  0
LINE
  5
FF
330
17
100
AcDbEntity
  8
10_GEOMETRY_CANDIDATE
100
AcDbLine
 10
70.18866666666666
 20
98.298
 30
0.0
 11
70.35799999999999
 21
88.56133333333335
 31
0.0
  0
LINE
  5
100
330
17
100
AcDbEntity
  8
10_GEOMETRY_CANDIDATE
100
AcDbLine
 10
19.89666666666667
 20
164.338
 30
0.0
 11
19.981333333333332
 21
171.2806666666667
 31
0.0
  0
LINE
  5
101
330
17
100
AcDbEntity
  8
10_GEOMETRY_CANDIDATE
100
AcDbLine
 10
19.388666666666666
 20
144.61066666666667
 30
0.0
 11
19.727333333333334
 21
154.686
 31
0.0
  0
LINE
  5
102
330
17
100
AcDbEntity
  8
10_GEOMETRY_CANDIDATE
100
AcDbLine
 10
4.826
 20
160.61266666666668
 30
0.0
 11
5.418666666666667
 21
152.99266666666668
 31
0.0
  0
LINE
  5
103
330
17
100
AcDbEntity
  8
10_GEOMETRY_CANDIDATE
100
AcDbLine
 10
37.16866666666666
 20
81.28000000000003
 30
0.0
 11
37.16866666666666
 21
108.28866666666667
 31
0.0
  0
LINE
  5
104
330
17
100
AcDbEntity
  8
10_GEOMETRY_CANDIDATE
100
AcDbLine
 10
25.145999999999997
 20
165.26933333333335
 30
0.0
 11
25.145999999999997
 21
174.83666666666667
 31
0.0
  0
LINE
  5
105
330
17
100
AcDbEntity
  8
10_GEOMETRY_CANDIDATE
100
AcDbLine
 10
21.081999999999997
 20
144.78
 30
0.0
 11
21.420666666666666
 21
154.60133333333334
 31
0.0
  0
LINE
  5
106
330
17
100
AcDbEntity
  8
10_GEOMETRY_CANDIDATE
100
AcDbLine
 10
0.0
 20
108.458
 30
0.0
 11
18.626666666666665
 21
108.458
 31
0.0
  0
LINE
  5
107
330
17
100
AcDbEntity
  8
10_GEOMETRY_CANDIDATE
100
AcDbLine
 10
60.96
 20
196.51133333333334
 30
0.0
 11
66.71733333333333
 21
216.74666666666667
 31
0.0
  0
LINE
  5
108
330
17
100
AcDbEntity
  8
10_GEOMETRY_CANDIDATE
100
AcDbLine
 10
20.32
 20
190.83866666666665
 30
0.0
 11
20.743333333333332
 21
202.35333333333335
 31
0.0
  0
LINE
  5
109
330
17
100
AcDbEntity
  8
10_GEOMETRY_CANDIDATE
100
AcDbLine
 10
77.89333333333333
 20
42.16399999999999
 30
0.0
 11
77.89333333333333
 21
50.71533333333332
 31
0.0
  0
LINE
  5
10A
330
17
100
AcDbEntity
  8
10_GEOMETRY_CANDIDATE
100
AcDbLine
 10
5.164666666666666
 20
161.20533333333333
 30
0.0
 11
5.842
 21
153.416
 31
0.0
  0
LINE
  5
10B
330
17
100
AcDbEntity
  8
10_GEOMETRY_CANDIDATE
100
AcDbLine
 10
38.946666666666665
 20
108.458
 30
0.0
 11
44.70399999999999
 21
67.73333333333335
 31
0.0
  0
LINE
  5
10C
330
17
100
AcDbEntity
  8
10_GEOMETRY_CANDIDATE
100
AcDbLine
 10
70.01933333333334
 20
98.12866666666667
 30
0.0
 11
70.35799999999999
 21
108.54266666666669
 31
0.0
  0
LINE
  5
10D
330
17
100
AcDbEntity
  8
10_GEOMETRY_CANDIDATE
100
AcDbLine
 10
21.420666666666666
 20
191.68533333333335
 30
0.0
 11
21.75933333333333
 21
202.26866666666666
 31
0.0
  0
LINE
  5
10E
330
17
100
AcDbEntity
  8
10_GEOMETRY_CANDIDATE
100
AcDbLine
 10
5.503333333333333
 20
60.11333333333337
 30
0.0
 11
17.441333333333333
 21
91.18599999999998
 31
0.0
  0
LINE
  5
10F
330
17
100
AcDbEntity
  8
10_GEOMETRY_CANDIDATE
100
AcDbLine
 10
45.12733333333333
 20
46.05866666666668
 30
0.0
 11
45.12733333333333
 21
68.74933333333331
 31
0.0
  0
LINE
  5
110
330
17
100
AcDbEntity
  8
10_GEOMETRY_CANDIDATE
100
AcDbLine
 10
77.47
 20
42.58733333333333
 30
0.0
 11
77.47
 21
52.32400000000001
 31
0.0
  0
LINE
  5
111
330
17
100
AcDbEntity
  8
10_GEOMETRY_CANDIDATE
100
AcDbLine
 10
64.60066666666667
 20
67.64866666666666
 30
0.0
 11
70.78133333333332
 21
88.05333333333337
 31
0.0
  0
LINE
  5
112
330
17
100
AcDbEntity
  8
10_GEOMETRY_CANDIDATE
100
AcDbLine
 10
24.976666666666667
 20
151.638
 30
0.0
 11
24.976666666666667
 21
162.39066666666668
 31
0.0
  0
LINE
  5
113
330
17
100
AcDbEntity
  8
10_GEOMETRY_CANDIDATE
100
AcDbLine
 10
9.144
 20
186.52066666666667
 30
0.0
 11
9.228666666666667
 21
194.9873333333333
 31
0.0
  0
LINE
  5
114
330
17
100
AcDbEntity
  8
10_GEOMETRY_CANDIDATE
100
AcDbLine
 10
18.118666666666666
 20
82.804
 30
0.0
 11
18.203333333333333
 21
74.59133333333335
 31
0.0
  0
LINE
  5
115
330
17
100
AcDbEntity
  8
10_GEOMETRY_CANDIDATE
100
AcDbLine
 10
45.974
 20
200.99866666666668
 30
0.0
 11
53.086
 21
224.19733333333335
 31
0.0
  0
LINE
  5
116
330
17
100
AcDbEntity
  8
10_GEOMETRY_CANDIDATE
100
AcDbLine
 10
5.842
 20
162.56
 30
0.0
 11
6.096
 21
171.958
 31
0.0
  0
LINE
  5
117
330
17
100
AcDbEntity
  8
10_GEOMETRY_CANDIDATE
100
AcDbLine
 10
10.075333333333333
 20
186.60533333333333
 30
0.0
 11
10.244666666666665
 21
194.73333333333335
 31
0.0
  0
LINE
  5
118
330
17
100
AcDbEntity
  8
10_GEOMETRY_CANDIDATE
100
AcDbLine
 10
3.3866666666666667
 20
196.34199999999998
 30
0.0
 11
22.775333333333332
 21
196.68066666666664
 31
0.0
  0
LINE
  5
119
330
17
100
AcDbEntity
  8
10_GEOMETRY_CANDIDATE
100
AcDbLine
 10
37.50733333333333
 20
81.28000000000003
 30
0.0
 11
37.50733333333333
 21
108.458
 31
0.0
  0
LINE
  5
11A
330
17
100
AcDbEntity
  8
10_GEOMETRY_CANDIDATE
100
AcDbLine
 10
21.674666666666667
 20
195.15666666666667
 30
0.0
 11
22.013333333333332
 21
202.26866666666666
 31
0.0
  0
LINE
  5
11B
330
17
100
AcDbEntity
  8
10_GEOMETRY_CANDIDATE
100
AcDbLine
 10
79.92533333333333
 20
261.02733333333333
 30
0.0
 11
79.92533333333333
 21
279.48466666666667
 31
0.0
  0
LINE
  5
11C
330
17
100
AcDbEntity
  8
10_GEOMETRY_CANDIDATE
100
AcDbLine
 10
31.91933333333333
 20
80.26400000000001
 30
0.0
 11
31.91933333333333
 21
95.84266666666667
 31
0.0
  0
LINE
  5
11D
330
17
100
AcDbEntity
  8
10_GEOMETRY_CANDIDATE
100
AcDbLine
 10
65.27799999999999
 20
47.413333333333355
 30
0.0
 11
65.786
 21
55.96466666666666
 31
0.0
  0
LINE
  5
11E
330
17
100
AcDbEntity
  8
10_GEOMETRY_CANDIDATE
100
AcDbLine
 10
4.572
 20
151.72266666666667
 30
0.0
 11
5.164666666666666
 21
144.526
 31
0.0
  0
LINE
  5
11F
330
17
100
AcDbEntity
  8
10_GEOMETRY_CANDIDATE
100
AcDbLine
 10
77.72399999999999
 20
42.58733333333333
 30
0.0
 11
77.72399999999999
 21
50.80000000000001
 31
0.0
  0
LINE
  5
120
330
17
100
AcDbEntity
  8
10_GEOMETRY_CANDIDATE
100
AcDbLine
 10
64.60066666666667
 20
27.093333333333362
 30
0.0
 11
64.93933333333334
 21
34.45933333333335
 31
0.0
  0
LINE
  5
121
330
17
100
AcDbEntity
  8
10_GEOMETRY_CANDIDATE
100
AcDbLine
 10
37.25333333333333
 20
83.3966666666667
 30
0.0
 11
64.51599999999999
 21
67.64866666666666
 31
0.0
  0
LINE
  5
122
330
17
100
AcDbEntity
  8
10_GEOMETRY_CANDIDATE
100
AcDbLine
 10
83.312
 20
262.89
 30
0.0
 11
83.312
 21
277.4526666666667
 31
0.0
  0
LINE
  5
123
330
17
100
AcDbEntity
  8
10_GEOMETRY_CANDIDATE
100
AcDbLine
 10
77.978
 20
41.99466666666666
 30
0.0
 11
77.978
 21
50.71533333333332
 31
0.0
  0
LINE
  5
124
330
17
100
AcDbEntity
  8
10_GEOMETRY_CANDIDATE
100
AcDbLine
 10
45.80466666666666
 20
201.2526666666667
 30
0.0
 11
62.907333333333334
 21
196.00333333333333
 31
0.0
  0
LINE
  5
125
330
17
100
AcDbEntity
  8
10_GEOMETRY_CANDIDATE
100
AcDbLine
 10
0.0
 20
115.90866666666668
 30
0.0
 11
19.558
 21
115.90866666666668
 31
0.0
  0
LINE
  5
126
330
17
100
AcDbEntity
  8
10_GEOMETRY_CANDIDATE
100
AcDbLine
 10
5.334
 20
183.04933333333332
 30
0.0
 11
5.334
 21
194.31
 31
0.0
  0
LINE
  5
127
330
17
100
AcDbEntity
  8
10_GEOMETRY_CANDIDATE
100
AcDbLine
 10
24.553333333333335
 20
133.096
 30
0.0
 11
32.42733333333333
 21
133.01133333333334
 31
0.0
  0
LINE
  5
128
330
17
100
AcDbEntity
  8
10_GEOMETRY_CANDIDATE
100
AcDbLine
 10
0.16933333333333334
 20
192.36266666666668
 30
0.0
 11
0.16933333333333334
 21
201.08333333333331
 31
0.0
  0
LINE
  5
129
330
17
100
AcDbEntity
  8
10_GEOMETRY_CANDIDATE
100
AcDbLine
 10
4.910666666666666
 20
161.20533333333333
 30
0.0
 11
5.503333333333333
 21
153.07733333333334
 31
0.0
  0
LINE
  5
12A
330
17
100
AcDbEntity
  8
10_GEOMETRY_CANDIDATE
100
AcDbLine
 10
84.582
 20
139.954
 30
0.0
 11
84.582
 21
150.02933333333334
 31
0.0
  0
LINE
  5
12B
330
17
100
AcDbEntity
  8
10_GEOMETRY_CANDIDATE
100
AcDbLine
 10
17.610666666666667
 20
178.9006666666667
 30
0.0
 11
17.610666666666667
 21
187.452
 31
0.0
  0
LINE
  5
12C
330
17
100
AcDbEntity
  8
10_GEOMETRY_CANDIDATE
100
AcDbLine
 10
76.79266666666666
 20
42.58733333333333
 30
0.0
 11
76.79266666666666
 21
49.953333333333376
 31
0.0
  0
LINE
  5
12D
330
17
100
AcDbEntity
  8
10_GEOMETRY_CANDIDATE
100
AcDbLine
 10
45.04266666666666
 20
45.97399999999999
 30
0.0
 11
45.04266666666666
 21
68.41066666666669
 31
0.0
  0
LINE
  5
12E
330
17
100
AcDbEntity
  8
10_GEOMETRY_CANDIDATE
100
AcDbLine
 10
25.31533333333333
 20
180.17066666666668
 30
0.0
 11
25.992666666666665
 21
188.214
 31
0.0
  0
LINE
  5
12F
330
17
100
AcDbEntity
  8
10_GEOMETRY_CANDIDATE
100
AcDbLine
 10
16.679333333333332
 20
172.88933333333335
 30
0.0
 11
16.679333333333332
 21
181.61
 31
0.0
  0
LINE
  5
130
330
17
100
AcDbEntity
  8
10_GEOMETRY_CANDIDATE
100
AcDbLine
 10
57.742666666666665
 20
45.80466666666666
 30
0.0
 11
57.742666666666665
 21
68.41066666666669
 31
0.0
  0
LINE
  5
131
330
17
100
AcDbEntity
  8
10_GEOMETRY_CANDIDATE
100
AcDbLine
 10
17.78
 20
179.74733333333336
 30
0.0
 11
17.864666666666665
 21
187.3673333333333
 31
0.0
  0
LINE
  5
132
330
17
100
AcDbEntity
  8
10_GEOMETRY_CANDIDATE
100
AcDbLine
 10
44.958
 20
68.24133333333333
 30
0.0
 11
70.78133333333332
 21
85.00533333333334
 31
0.0
  0
LINE
  5
133
330
17
100
AcDbEntity
  8
10_GEOMETRY_CANDIDATE
100
AcDbLine
 10
0.0
 20
108.28866666666667
 30
0.0
 11
18.626666666666665
 21
108.28866666666667
 31
0.0
  0
LINE
  5
134
330
17
100
AcDbEntity
  8
10_GEOMETRY_CANDIDATE
100
AcDbLine
 10
0.0
 20
133.4346666666667
 30
0.0
 11
8.720666666666666
 21
133.4346666666667
 31
0.0
  0
LINE
  5
135
330
17
100
AcDbEntity
  8
10_GEOMETRY_CANDIDATE
100
AcDbLine
 10
77.38533333333334
 20
42.58733333333333
 30
0.0
 11
77.38533333333334
 21
52.32400000000001
 31
0.0
  0
LINE
  5
136
330
17
100
AcDbEntity
  8
10_GEOMETRY_CANDIDATE
100
AcDbLine
 10
5.164666666666666
 20
160.27400000000003
 30
0.0
 11
5.672666666666666
 21
153.162
 31
0.0
  0
LINE
  5
137
330
17
100
AcDbEntity
  8
10_GEOMETRY_CANDIDATE
100
AcDbLine
 10
20.235333333333333
 20
191.68533333333335
 30
0.0
 11
20.48933333333333
 21
199.05133333333333
 31
0.0
  0
LINE
  5
138
330
17
100
AcDbEntity
  8
10_GEOMETRY_CANDIDATE
100
AcDbLine
 10
0.0
 20
238.506
 30
0.0
 11
12.276666666666667
 21
241.808
 31
0.0
  0
LINE
  5
139
330
17
100
AcDbEntity
  8
10_GEOMETRY_CANDIDATE
100
AcDbLine
 10
18.541999999999998
 20
89.23866666666666
 30
0.0
 11
18.626666666666665
 21
81.53400000000002
 31
0.0
  0
LINE
  5
13A
330
17
100
AcDbEntity
  8
10_GEOMETRY_CANDIDATE
100
AcDbLine
 10
76.96199999999999
 20
42.67199999999997
 30
0.0
 11
76.96199999999999
 21
52.23933333333332
 31
0.0
  0
LINE
  5
13B
330
17
100
AcDbEntity
  8
10_GEOMETRY_CANDIDATE
100
AcDbLine
 10
17.949333333333332
 20
108.88133333333334
 30
0.0
 11
18.203333333333333
 21
96.18133333333333
 31
0.0
  0
LINE
  5
13C
330
17
100
AcDbEntity
  8
10_GEOMETRY_CANDIDATE
100
AcDbLine
 10
4.487333333333333
 20
168.57133333333334
 30
0.0
 11
18.541999999999998
 21
169.07933333333335
 31
0.0
  0
LINE
  5
13D
330
17
100
AcDbEntity
  8
10_GEOMETRY_CANDIDATE
100
AcDbLine
 10
4.826
 20
162.39066666666668
 30
0.0
 11
5.164666666666666
 21
171.958
 31
0.0
  0
LINE
  5
13E
330
17
100
AcDbEntity
  8
10_GEOMETRY_CANDIDATE
100
AcDbLine
 10
17.017999999999997
 20
156.63333333333333
 30
0.0
 11
17.017999999999997
 21
164.67666666666668
 31
0.0
  0
LINE
  5
13F
330
17
100
AcDbEntity
  8
10_GEOMETRY_CANDIDATE
100
AcDbLine
 10
9.144
 20
155.02466666666666
 30
0.0
 11
9.397999999999998
 21
163.23733333333334
 31
0.0
  0
LINE
  5
140
330
17
100
AcDbEntity
  8
10_GEOMETRY_CANDIDATE
100
AcDbLine
 10
24.976666666666667
 20
165.354
 30
0.0
 11
25.061333333333334
 21
172.80466666666666
 31
0.0
  0
LINE
  5
141
330
17
100
AcDbEntity
  8
10_GEOMETRY_CANDIDATE
100
AcDbLine
 10
77.55466666666666
 20
42.58733333333333
 30
0.0
 11
77.55466666666666
 21
50.88466666666665
 31
0.0
  0
LINE
  5
142
330
17
100
AcDbEntity
  8
10_GEOMETRY_CANDIDATE
100
AcDbLine
 10
37.25333333333333
 20
81.28000000000003
 30
0.0
 11
37.25333333333333
 21
108.37333333333333
 31
0.0
  0
LINE
  5
143
330
17
100
AcDbEntity
  8
10_GEOMETRY_CANDIDATE
100
AcDbLine
 10
65.44733333333332
 20
47.15933333333339
 30
0.0
 11
65.87066666666665
 21
55.71066666666667
 31
0.0
  0
LINE
  5
144
330
17
100
AcDbEntity
  8
10_GEOMETRY_CANDIDATE
100
AcDbLine
 10
20.235333333333333
 20
191.93933333333334
 30
0.0
 11
20.48933333333333
 21
200.914
 31
0.0
  0
LINE
  5
145
330
17
100
AcDbEntity
  8
10_GEOMETRY_CANDIDATE
100
AcDbLine
 10
30.05666666666667
 20
246.54933333333332
 30
0.0
 11
47.58266666666666
 21
228.43066666666667
 31
0.0
  0
LINE
  5
146
330
17
100
AcDbEntity
  8
10_GEOMETRY_CANDIDATE
100
AcDbLine
 10
0.08466666666666667
 20
192.36266666666668
 30
0.0
 11
0.08466666666666667
 21
201.08333333333331
 31
0.0
  0
LINE
  5
147
330
17
100
AcDbEntity
  8
10_GEOMETRY_CANDIDATE
100
AcDbLine
 10
0.16933333333333334
 20
73.57533333333333
 30
0.0
 11
5.7573333333333325
 21
59.605333333333334
 31
0.0
  0
LINE
  5
148
330
17
100
AcDbEntity
  8
10_GEOMETRY_CANDIDATE
100
AcDbLine
 10
13.377333333333333
 20
187.198
 30
0.0
 11
13.462
 21
179.49333333333334
 31
0.0
  0
LINE
  5
149
330
17
100
AcDbEntity
  8
10_GEOMETRY_CANDIDATE
100
AcDbLine
 10
70.10399999999998
 20
95.84266666666667
 30
0.0
 11
70.27333333333333
 21
81.53400000000002
 31
0.0
  0
LINE
  5
14A
330
17
100
AcDbEntity
  8
10_GEOMETRY_CANDIDATE
100
AcDbLine
 10
16.594666666666665
 20
172.88933333333335
 30
0.0
 11
16.594666666666665
 21
181.864
 31
0.0
  0
LINE
  5
14B
330
17
100
AcDbEntity
  8
10_GEOMETRY_CANDIDATE
100
AcDbLine
 10
17.78
 20
173.39733333333334
 30
0.0
 11
18.034
 21
187.28266666666667
 31
0.0
  0
LINE
  5
14C
330
17
100
AcDbEntity
  8
10_GEOMETRY_CANDIDATE
100
AcDbLine
 10
46.05866666666666
 20
200.99866666666668
 30
0.0
 11
53.17066666666666
 21
224.19733333333335
 31
0.0
  0
LINE
  5
14D
330
17
100
AcDbEntity
  8
10_GEOMETRY_CANDIDATE
100
AcDbLine
 10
43.51866666666666
 20
132.6726666666667
 30
0.0
 11
50.291999999999994
 21
132.92666666666668
 31
0.0
  0
LINE
  5
14E
330
17
100
AcDbEntity
  8
10_GEOMETRY_CANDIDATE
100
AcDbLine
 10
45.80466666666666
 20
68.66466666666668
 30
0.0
 11
70.78133333333332
 21
84.83599999999998
 31
0.0
  0
LINE
  5
14F
330
17
100
AcDbEntity
  8
10_GEOMETRY_CANDIDATE
100
AcDbLine
 10
16.42533333333333
 20
156.63333333333333
 30
0.0
 11
16.42533333333333
 21
164.4226666666667
 31
0.0
  0
LINE
  5
150
330
17
100
AcDbEntity
  8
10_GEOMETRY_CANDIDATE
100
AcDbLine
 10
39.623999999999995
 20
83.05799999999999
 30
0.0
 11
44.45
 21
68.326
 31
0.0
  0
LINE
  5
151
330
17
100
AcDbEntity
  8
10_GEOMETRY_CANDIDATE
100
AcDbLine
 10
7.365999999999999
 20
278.13
 30
0.0
 11
17.102666666666664
 21
278.2993333333333
 31
0.0
  0
LINE
  5
152
330
17
100
AcDbEntity
  8
10_GEOMETRY_CANDIDATE
100
AcDbLine
 10
17.949333333333332
 20
173.482
 30
0.0
 11
18.203333333333333
 21
187.28266666666667
 31
0.0
  0
LINE
  5
153
330
17
100
AcDbEntity
  8
10_GEOMETRY_CANDIDATE
100
AcDbLine
 10
40.470666666666666
 20
93.04866666666669
 30
0.0
 11
44.365333333333325
 21
68.74933333333331
 31
0.0
  0
LINE
  5
154
330
17
100
AcDbEntity
  8
10_GEOMETRY_CANDIDATE
100
AcDbLine
 10
20.997333333333334
 20
202.35333333333335
 30
0.0
 11
21.166666666666668
 21
191.76999999999998
 31
0.0
  0
LINE
  5
155
330
17
100
AcDbEntity
  8
10_GEOMETRY_CANDIDATE
100
AcDbLine
 10
70.78133333333332
 20
81.53400000000002
 30
0.0
 11
70.78133333333332
 21
101.76933333333335
 31
0.0
  0
LINE
  5
156
330
17
100
AcDbEntity
  8
10_GEOMETRY_CANDIDATE
100
AcDbLine
 10
20.743333333333332
 20
200.49066666666664
 30
0.0
 11
20.912666666666663
 21
191.68533333333335
 31
0.0
  0
LINE
  5
157
330
17
100
AcDbEntity
  8
10_GEOMETRY_CANDIDATE
100
AcDbLine
 10
24.892
 20
151.638
 30
0.0
 11
24.892
 21
160.78199999999998
 31
0.0
  0
LINE
  5
158
330
17
100
AcDbEntity
  8
10_GEOMETRY_CANDIDATE
100
AcDbLine
 10
25.56933333333333
 20
190.16133333333335
 30
0.0
 11
26.162
 21
201.33733333333333
 31
0.0
  0
LINE
  5
159
330
17
100
AcDbEntity
  8
10_GEOMETRY_CANDIDATE
100
AcDbLine
 10
6.265333333333333
 20
50.29199999999997
 30
0.0
 11
6.434666666666666
 21
42.24866666666668
 31
0.0
  0
LINE
  5
15A
330
17
100
AcDbEntity
  8
10_GEOMETRY_CANDIDATE
100
AcDbLine
 10
0.16933333333333334
 20
62.56866666666667
 30
0.0
 11
18.541999999999998
 21
77.47000000000003
 31
0.0
  0
LINE
  5
15B
330
17
100
AcDbEntity
  8
10_GEOMETRY_CANDIDATE
100
AcDbLine
 10
0.16933333333333334
 20
75.26866666666666
 30
0.0
 11
15.494
 21
74.93000000000004
 31
0.0
  0
LINE
  5
15C
330
17
100
AcDbEntity
  8
10_GEOMETRY_CANDIDATE
100
AcDbLine
 10
0.0
 20
108.79666666666668
 30
0.0
 11
18.457333333333334
 21
108.79666666666668
 31
0.0
  0
LINE
  5
15D
330
17
100
AcDbEntity
  8
10_GEOMETRY_CANDIDATE
100
AcDbLine
 10
0.0
 20
108.37333333333333
 30
0.0
 11
18.541999999999998
 21
108.37333333333333
 31
0.0
  0
LINE
  5
15E
330
17
100
AcDbEntity
  8
10_GEOMETRY_CANDIDATE
100
AcDbLine
 10
77.13133333333333
 20
42.75666666666672
 30
0.0
 11
77.13133333333333
 21
52.32400000000001
 31
0.0
  0
LINE
  5
15F
330
17
100
AcDbEntity
  8
10_GEOMETRY_CANDIDATE
100
AcDbLine
 10
19.811999999999998
 20
172.55066666666667
 30
0.0
 11
20.235333333333333
 21
185.67399999999998
 31
0.0
  0
LINE
  5
160
330
17
100
AcDbEntity
  8
10_GEOMETRY_CANDIDATE
100
AcDbLine
 10
13.377333333333333
 20
278.892
 30
0.0
 11
20.912666666666663
 21
278.892
 31
0.0
  0
LINE
  5
161
330
17
100
AcDbEntity
  8
10_GEOMETRY_CANDIDATE
100
AcDbLine
 10
0.0
 20
192.36266666666668
 30
0.0
 11
0.0
 21
201.08333333333331
 31
0.0
  0
LINE
  5
162
330
17
100
AcDbEntity
  8
10_GEOMETRY_CANDIDATE
100
AcDbLine
 10
13.292666666666666
 20
187.02866666666665
 30
0.0
 11
13.462
 21
174.41333333333333
 31
0.0
  0
LINE
  5
163
330
17
100
AcDbEntity
  8
10_GEOMETRY_CANDIDATE
100
AcDbLine
 10
60.87533333333333
 20
196.596
 30
0.0
 11
66.63266666666667
 21
216.74666666666667
 31
0.0
  0
LINE
  5
164
330
17
100
AcDbEntity
  8
10_GEOMETRY_CANDIDATE
100
AcDbLine
 10
77.216
 20
42.75666666666672
 30
0.0
 11
77.216
 21
52.32400000000001
 31
0.0
  0
LINE
  5
165
330
17
100
AcDbEntity
  8
10_GEOMETRY_CANDIDATE
100
AcDbLine
 10
54.779333333333334
 20
78.82466666666667
 30
0.0
 11
59.436
 21
60.11333333333337
 31
0.0
  0
LINE
  5
166
330
17
100
AcDbEntity
  8
10_GEOMETRY_CANDIDATE
100
AcDbLine
 10
0.16933333333333334
 20
74.59133333333335
 30
0.0
 11
18.541999999999998
 21
74.59133333333335
 31
0.0
  0
LINE
  5
167
330
17
100
AcDbEntity
  8
10_GEOMETRY_CANDIDATE
100
AcDbLine
 10
0.16933333333333334
 20
62.907333333333355
 30
0.0
 11
13.462
 21
73.66000000000003
 31
0.0
  0
LINE
  5
168
330
17
100
AcDbEntity
  8
10_GEOMETRY_CANDIDATE
100
AcDbLine
 10
20.997333333333334
 20
144.78
 30
0.0
 11
21.336
 21
154.60133333333334
 31
0.0
  0
LINE
  5
169
330
17
100
AcDbEntity
  8
10_GEOMETRY_CANDIDATE
100
AcDbLine
 10
25.823333333333334
 20
193.88666666666666
 30
0.0
 11
26.246666666666666
 21
201.168
 31
0.0
  0
LINE
  5
16A
330
17
100
AcDbEntity
  8
10_GEOMETRY_CANDIDATE
100
AcDbLine
 10
0.0
 20
70.612
 30
0.0
 11
13.885333333333332
 21
60.11333333333337
 31
0.0
  0
LINE
  5
16B
330
17
100
AcDbEntity
  8
10_GEOMETRY_CANDIDATE
100
AcDbLine
 10
37.338
 20
81.28000000000003
 30
0.0
 11
37.338
 21
101.6
 31
0.0
  0
LINE
  5
16C
330
17
100
AcDbEntity
  8
10_GEOMETRY_CANDIDATE
100
AcDbLine
 10
0.0
 20
133.51933333333335
 30
0.0
 11
13.885333333333332
 21
133.51933333333335
 31
0.0
  0
LINE
  5
16D
330
17
100
AcDbEntity
  8
10_GEOMETRY_CANDIDATE
100
AcDbLine
 10
36.74533333333333
 20
191.1773333333333
 30
0.0
 11
44.196
 21
199.13600000000002
 31
0.0
  0
LINE
  5
16E
330
17
100
AcDbEntity
  8
10_GEOMETRY_CANDIDATE
100
AcDbLine
 10
8.805333333333333
 20
168.656
 30
0.0
 11
19.473333333333333
 21
168.99466666666666
 31
0.0
  0
LINE
  5
16F
330
17
100
AcDbEntity
  8
10_GEOMETRY_CANDIDATE
100
AcDbLine
 10
57.827333333333335
 20
45.80466666666666
 30
0.0
 11
57.827333333333335
 21
65.78599999999997
 31
0.0
  0
LINE
  5
170
330
17
100
AcDbEntity
  8
10_GEOMETRY_CANDIDATE
100
AcDbLine
 10
76.87733333333333
 20
42.58733333333333
 30
0.0
 11
76.87733333333333
 21
52.154666666666685
 31
0.0
  0
LINE
  5
171
330
17
100
AcDbEntity
  8
10_GEOMETRY_CANDIDATE
100
AcDbLine
 10
4.910666666666666
 20
162.39066666666668
 30
0.0
 11
5.249333333333333
 21
172.0426666666667
 31
0.0
  0
LINE
  5
172
330
17
100
AcDbEntity
  8
10_GEOMETRY_CANDIDATE
100
AcDbLine
 10
77.30066666666666
 20
42.67199999999997
 30
0.0
 11
77.30066666666666
 21
52.32400000000001
 31
0.0
  0
LINE
  5
173
330
17
100
AcDbEntity
  8
10_GEOMETRY_CANDIDATE
100
AcDbLine
 10
64.85466666666666
 20
71.882
 30
0.0
 11
66.97133333333332
 21
89.662
 31
0.0
  0
LINE
  5
174
330
17
100
AcDbEntity
  8
10_GEOMETRY_CANDIDATE
100
AcDbLine
 10
20.912666666666663
 20
200.74466666666666
 30
0.0
 11
21.081999999999997
 21
191.68533333333335
 31
0.0
  0
LINE
  5
175
330
17
100
AcDbEntity
  8
10_GEOMETRY_CANDIDATE
100
AcDbLine
 10
17.949333333333332
 20
189.56866666666667
 30
0.0
 11
18.118666666666666
 21
196.85
 31
0.0
  0
LINE
  5
176
330
17
100
AcDbEntity
  8
10_GEOMETRY_CANDIDATE
100
AcDbLine
 10
33.358666666666664
 20
133.26533333333333
 30
0.0
 11
42.672
 21
133.26533333333333
 31
0.0
  0
LINE
  5
177
330
17
100
AcDbEntity
  8
10_GEOMETRY_CANDIDATE
100
AcDbLine
 10
70.10399999999998
 20
89.916
 30
0.0
 11
70.18866666666666
 21
81.53400000000002
 31
0.0
  0
LINE
  5
178
330
17
100
AcDbEntity
  8
10_GEOMETRY_CANDIDATE
100
AcDbLine
 10
70.612
 20
87.12199999999999
 30
0.0
 11
70.612
 21
97.45133333333334
 31
0.0
  0
LINE
  5
179
330
17
100
AcDbEntity
  8
10_GEOMETRY_CANDIDATE
100
AcDbLine
 10
84.24333333333334
 20
173.73600000000002
 30
0.0
 11
84.24333333333334
 21
190.5846666666667
 31
0.0
  0
LINE
  5
17A
330
17
100
AcDbEntity
  8
10_GEOMETRY_CANDIDATE
100
AcDbLine
 10
5.672666666666666
 20
60.19800000000001
 30
0.0
 11
12.361333333333333
 21
77.72400000000002
 31
0.0
  0
LINE
  5
17B
330
17
100
AcDbEntity
  8
10_GEOMETRY_CANDIDATE
100
AcDbLine
 10
63.41533333333333
 20
279.31533333333334
 30
0.0
 11
70.69666666666667
 21
279.31533333333334
 31
0.0
  0
LINE
  5
17C
330
17
100
AcDbEntity
  8
10_GEOMETRY_CANDIDATE
100
AcDbLine
 10
17.610666666666667
 20
189.56866666666667
 30
0.0
 11
17.78
 21
200.32133333333334
 31
0.0
  0
LINE
  5
17D
330
17
100
AcDbEntity
  8
10_GEOMETRY_CANDIDATE
100
AcDbLine
 10
73.99866666666667
 20
278.72266666666667
 30
0.0
 11
83.312
 21
278.72266666666667
 31
0.0
  0
LINE
  5
17E
330
17
100
AcDbEntity
  8
10_GEOMETRY_CANDIDATE
100
AcDbLine
 10
37.422666666666665
 20
83.3966666666667
 30
0.0
 11
64.51599999999999
 21
67.81800000000001
 31
0.0
  0
LINE
  5
17F
330
17
100
AcDbEntity
  8
10_GEOMETRY_CANDIDATE
100
AcDbLine
 10
0.8466666666666667
 20
238.76
 30
0.0
 11
13.292666666666666
 21
242.14666666666665
 31
0.0
  0
LINE
  5
180
330
17
100
AcDbEntity
  8
10_GEOMETRY_CANDIDATE
100
AcDbLine
 10
21.75933333333333
 20
248.58133333333333
 30
0.0
 11
26.077333333333332
 21
238.92933333333332
 31
0.0
  0
LINE
  5
181
330
17
100
AcDbEntity
  8
10_GEOMETRY_CANDIDATE
100
AcDbLine
 10
18.288
 20
189.31466666666665
 30
0.0
 11
18.372666666666664
 21
196.85
 31
0.0
  0
LINE
  5
182
330
17
100
AcDbEntity
  8
10_GEOMETRY_CANDIDATE
100
AcDbLine
 10
79.84066666666666
 20
267.20799999999997
 30
0.0
 11
79.84066666666666
 21
279.48466666666667
 31
0.0
  0
LINE
  5
183
330
17
100
AcDbEntity
  8
10_GEOMETRY_CANDIDATE
100
AcDbLine
 10
37.846
 20
81.87266666666665
 30
0.0
 11
60.367333333333335
 21
81.87266666666665
 31
0.0
  0
LINE
  5
184
330
17
100
AcDbEntity
  8
10_GEOMETRY_CANDIDATE
100
AcDbLine
 10
5.7573333333333325
 20
153.33133333333333
 30
0.0
 11
5.926666666666667
 21
161.20533333333333
 31
0.0
  0
LINE
  5
185
330
17
100
AcDbEntity
  8
10_GEOMETRY_CANDIDATE
100
AcDbLine
 10
45.72
 20
50.46133333333336
 30
0.0
 11
46.48199999999999
 21
58.335333333333324
 31
0.0
  0
LINE
  5
186
330
17
100
AcDbEntity
  8
10_GEOMETRY_CANDIDATE
100
AcDbLine
 10
19.21933333333333
 20
147.066
 30
0.0
 11
19.304
 21
154.432
 31
0.0
  0
LINE
  5
187
330
17
100
AcDbEntity
  8
10_GEOMETRY_CANDIDATE
100
AcDbLine
 10
39.79333333333334
 20
83.05799999999999
 30
0.0
 11
44.534666666666666
 21
68.41066666666669
 31
0.0
  0
LINE
  5
188
330
17
100
AcDbEntity
  8
10_GEOMETRY_CANDIDATE
100
AcDbLine
 10
77.04666666666667
 20
42.75666666666672
 30
0.0
 11
77.04666666666667
 21
52.23933333333332
 31
0.0
  0
LINE
  5
189
330
17
100
AcDbEntity
  8
10_GEOMETRY_CANDIDATE
100
AcDbLine
 10
38.52333333333333
 20
84.24333333333337
 30
0.0
 11
42.84133333333333
 21
72.39000000000001
 31
0.0
  0
LINE
  5
18A
330
17
100
AcDbEntity
  8
10_GEOMETRY_CANDIDATE
100
AcDbLine
 10
37.846
 20
81.19533333333334
 30
0.0
 11
37.846
 21
97.19733333333335
 31
0.0
  0
LINE
  5
18B
330
17
100
AcDbEntity
  8
10_GEOMETRY_CANDIDATE
100
AcDbLine
 10
81.026
 20
134.02733333333336
 30
0.0
 11
81.026
 21
148.16666666666666
 31
0.0
  0
LINE
  5
18C
330
17
100
AcDbEntity
  8
10_GEOMETRY_CANDIDATE
100
AcDbLine
 10
58.42
 20
48.34466666666668
 30
0.0
 11
58.75866666666666
 21
56.47266666666664
 31
0.0
  0
LINE
  5
18D
330
17
100
AcDbEntity
  8
10_GEOMETRY_CANDIDATE
100
AcDbLine
 10
25.56933333333333
 20
186.18200000000002
 30
0.0
 11
26.077333333333332
 21
195.24133333333333
 31
0.0
  0
LINE
  5
18E
330
17
100
AcDbEntity
  8
10_GEOMETRY_CANDIDATE
100
AcDbLine
 10
13.123333333333333
 20
184.48866666666666
 30
0.0
 11
13.207999999999998
 21
177.038
 31
0.0
  0
LINE
  5
18F
330
17
100
AcDbEntity
  8
10_GEOMETRY_CANDIDATE
100
AcDbLine
 10
64.85466666666666
 20
70.86599999999999
 30
0.0
 11
66.54799999999999
 21
85.25933333333333
 31
0.0
  0
LINE
  5
190
330
17
100
AcDbEntity
  8
10_GEOMETRY_CANDIDATE
100
AcDbLine
 10
21.843999999999998
 20
248.58133333333333
 30
0.0
 11
26.162
 21
238.92933333333332
 31
0.0
  0
LINE
  5
191
330
17
100
AcDbEntity
  8
10_GEOMETRY_CANDIDATE
100
AcDbLine
 10
16.848666666666666
 20
168.74066666666667
 30
0.0
 11
17.017999999999997
 21
181.102
 31
0.0
  0
LINE
  5
192
330
17
100
AcDbEntity
  8
10_GEOMETRY_CANDIDATE
100
AcDbLine
 10
38.1
 20
237.91333333333336
 30
0.0
 11
51.308
 21
224.28199999999998
 31
0.0
  0
LINE
  5
193
330
17
100
AcDbEntity
  8
10_GEOMETRY_CANDIDATE
100
AcDbLine
 10
53.42466666666667
 20
81.28000000000003
 30
0.0
 11
69.596
 21
106.172
 31
0.0
  0
LINE
  5
194
330
17
100
AcDbEntity
  8
10_GEOMETRY_CANDIDATE
100
AcDbLine
 10
2.54
 20
75.26866666666666
 30
0.0
 11
10.329333333333333
 21
75.18400000000003
 31
0.0
  0
LINE
  5
195
330
17
100
AcDbEntity
  8
10_GEOMETRY_CANDIDATE
100
AcDbLine
 10
21.336
 20
191.68533333333335
 30
0.0
 11
21.674666666666667
 21
202.26866666666666
 31
0.0
  0
LINE
  5
196
330
17
100
AcDbEntity
  8
10_GEOMETRY_CANDIDATE
100
AcDbLine
 10
21.166666666666668
 20
144.86466666666666
 30
0.0
 11
21.420666666666666
 21
153.07733333333334
 31
0.0
  0
LINE
  5
197
330
17
100
AcDbEntity
  8
10_GEOMETRY_CANDIDATE
100
AcDbLine
 10
19.473333333333333
 20
144.61066666666667
 30
0.0
 11
19.811999999999998
 21
154.686
 31
0.0
  0
LINE
  5
198
330
17
100
AcDbEntity
  8
10_GEOMETRY_CANDIDATE
100
AcDbLine
 10
2.1166666666666667
 20
69.088
 30
0.0
 11
4.910666666666666
 21
62.145333333333326
 31
0.0
  0
LINE
  5
199
330
17
100
AcDbEntity
  8
10_GEOMETRY_CANDIDATE
100
AcDbLine
 10
0.16933333333333334
 20
62.738
 30
0.0
 11
13.546666666666667
 21
73.57533333333333
 31
0.0
  0
LINE
  5
19A
330
17
100
AcDbEntity
  8
10_GEOMETRY_CANDIDATE
100
AcDbLine
 10
0.33866666666666667
 20
74.67599999999999
 30
0.0
 11
18.541999999999998
 21
74.67599999999999
 31
0.0
  0
LINE
  5
19B
330
17
100
AcDbEntity
  8
10_GEOMETRY_CANDIDATE
100
AcDbLine
 10
21.928666666666665
 20
181.69466666666668
 30
0.0
 11
22.351999999999997
 21
189.23000000000002
 31
0.0
  0
LINE
  5
19C
330
17
100
AcDbEntity
  8
10_GEOMETRY_CANDIDATE
100
AcDbLine
 10
50.96933333333333
 20
224.45133333333334
 30
0.0
 11
62.82266666666666
 21
222.41933333333333
 31
0.0
  0
LINE
  5
19D
330
17
100
AcDbEntity
  8
10_GEOMETRY_CANDIDATE
100
AcDbLine
 10
43.51866666666666
 20
141.732
 30
0.0
 11
50.71533333333333
 21
141.30866666666665
 31
0.0
  0
LINE
  5
19E
330
17
100
AcDbEntity
  8
10_GEOMETRY_CANDIDATE
100
AcDbLine
 10
64.51599999999999
 20
67.73333333333335
 30
0.0
 11
67.22533333333332
 21
76.79266666666666
 31
0.0
  0
LINE
  5
19F
330
17
100
AcDbEntity
  8
10_GEOMETRY_CANDIDATE
100
AcDbLine
 10
37.422666666666665
 20
81.28000000000003
 30
0.0
 11
54.102
 21
81.28000000000003
 31
0.0
  0
LINE
  5
1A0
330
17
100
AcDbEntity
  8
10_GEOMETRY_CANDIDATE
100
AcDbLine
 10
45.80466666666666
 20
50.46133333333336
 30
0.0
 11
46.56666666666667
 21
58.335333333333324
 31
0.0
  0
LINE
  5
1A1
330
17
100
AcDbEntity
  8
10_GEOMETRY_CANDIDATE
100
AcDbLine
 10
55.626
 20
279.23066666666665
 30
0.0
 11
67.73333333333333
 21
279.23066666666665
 31
0.0
  0
LINE
  5
1A2
330
17
100
AcDbEntity
  8
10_GEOMETRY_CANDIDATE
100
AcDbLine
 10
21.674666666666667
 20
179.23933333333335
 30
0.0
 11
22.182666666666663
 21
189.23000000000002
 31
0.0
  0
LINE
  5
1A3
330
17
100
AcDbEntity
  8
10_GEOMETRY_CANDIDATE
100
AcDbLine
 10
17.949333333333332
 20
180.17066666666668
 30
0.0
 11
18.118666666666666
 21
187.28266666666667
 31
0.0
  0
LINE
  5
1A4
330
17
100
AcDbEntity
  8
10_GEOMETRY_CANDIDATE
100
AcDbLine
 10
36.74533333333333
 20
191.34666666666666
 30
0.0
 11
44.61933333333333
 21
199.72866666666667
 31
0.0
  0
LINE
  5
1A5
330
17
100
AcDbEntity
  8
10_GEOMETRY_CANDIDATE
100
AcDbLine
 10
17.69533333333333
 20
189.65333333333334
 30
0.0
 11
17.78
 21
198.54333333333335
 31
0.0
  0
LINE
  5
1A6
330
17
100
AcDbEntity
  8
10_GEOMETRY_CANDIDATE
100
AcDbLine
 10
53.593999999999994
 20
83.05799999999999
 30
0.0
 11
56.303333333333335
 21
72.30533333333332
 31
0.0
  0
LINE
  5
1A7
330
17
100
AcDbEntity
  8
10_GEOMETRY_CANDIDATE
100
AcDbLine
 10
22.098
 20
191.60066666666665
 30
0.0
 11
22.436666666666667
 21
198.96666666666667
 31
0.0
  0
LINE
  5
1A8
330
17
100
AcDbEntity
  8
10_GEOMETRY_CANDIDATE
100
AcDbLine
 10
16.086666666666666
 20
146.64266666666668
 30
0.0
 11
16.086666666666666
 21
154.77066666666667
 31
0.0
  0
LINE
  5
1A9
330
17
100
AcDbEntity
  8
10_GEOMETRY_CANDIDATE
100
AcDbLine
 10
41.06333333333333
 20
278.2146666666667
 30
0.0
 11
48.93733333333333
 21
278.2993333333333
 31
0.0
  0
LINE
  5
1AA
330
17
100
AcDbEntity
  8
10_GEOMETRY_CANDIDATE
100
AcDbLine
 10
45.88933333333333
 20
50.29199999999997
 30
0.0
 11
46.736
 21
58.25066666666669
 31
0.0
  0
LINE
  5
1AB
330
17
100
AcDbEntity
  8
10_GEOMETRY_CANDIDATE
100
AcDbLine
 10
45.72
 20
201.168
 30
0.0
 11
54.864000000000004
 21
198.374
 31
0.0
  0
LINE
  5
1AC
330
17
100
AcDbEntity
  8
10_GEOMETRY_CANDIDATE
100
AcDbLine
 10
70.18866666666666
 20
96.60466666666667
 30
0.0
 11
70.44266666666667
 21
81.53400000000002
 31
0.0
  0
LINE
  5
1AD
330
17
100
AcDbEntity
  8
10_GEOMETRY_CANDIDATE
100
AcDbLine
 10
17.525999999999996
 20
156.88733333333334
 30
0.0
 11
17.525999999999996
 21
164.59199999999998
 31
0.0
  0
LINE
  5
1AE
330
17
100
AcDbEntity
  8
10_GEOMETRY_CANDIDATE
100
AcDbLine
 10
83.22733333333332
 20
266.8693333333333
 30
0.0
 11
83.22733333333332
 21
279.48466666666667
 31
0.0
  0
LINE
  5
1AF
330
17
100
AcDbEntity
  8
10_GEOMETRY_CANDIDATE
100
AcDbLine
 10
47.58266666666666
 20
69.76533333333333
 30
0.0
 11
68.15666666666667
 21
82.63466666666667
 31
0.0
  0
LINE
  5
1B0
330
17
100
AcDbEntity
  8
10_GEOMETRY_CANDIDATE
100
AcDbLine
 10
38.608
 20
84.24333333333337
 30
0.0
 11
44.196
 21
68.91866666666667
 31
0.0
  0
LINE
  5
1B1
330
17
100
AcDbEntity
  8
10_GEOMETRY_CANDIDATE
100
AcDbLine
 10
45.974
 20
50.20733333333334
 30
0.0
 11
46.736
 21
57.404000000000025
 31
0.0
  0
LINE
  5
1B2
330
17
100
AcDbEntity
  8
10_GEOMETRY_CANDIDATE
100
AcDbLine
 10
15.832666666666666
 20
234.35733333333332
 30
0.0
 11
24.637999999999998
 21
239.014
 31
0.0
  0
LINE
  5
1B3
330
17
100
AcDbEntity
  8
10_GEOMETRY_CANDIDATE
100
AcDbLine
 10
6.265333333333333
 20
185.75866666666667
 30
0.0
 11
6.265333333333333
 21
195.24133333333333
 31
0.0
  0
LINE
  5
1B4
330
17
100
AcDbEntity
  8
10_GEOMETRY_CANDIDATE
100
AcDbLine
 10
0.0
 20
238.42133333333334
 30
0.0
 11
7.535333333333333
 21
240.45333333333332
 31
0.0
  0
LINE
  5
1B5
330
17
100
AcDbEntity
  8
10_GEOMETRY_CANDIDATE
100
AcDbLine
 10
2.9633333333333334
 20
68.49533333333332
 30
0.0
 11
13.377333333333333
 21
60.70599999999999
 31
0.0
  0
LINE
  5
1B6
330
17
100
AcDbEntity
  8
10_GEOMETRY_CANDIDATE
100
AcDbLine
 10
12.276666666666667
 20
241.97733333333332
 30
0.0
 11
15.409333333333334
 21
234.696
 31
0.0
  0
LINE
  5
1B7
330
17
100
AcDbEntity
  8
10_GEOMETRY_CANDIDATE
100
AcDbLine
 10
37.422666666666665
 20
81.44933333333333
 30
0.0
 11
37.422666666666665
 21
101.6
 31
0.0
  0
LINE
  5
1B8
330
17
100
AcDbEntity
  8
10_GEOMETRY_CANDIDATE
100
AcDbLine
 10
16.764
 20
189.31466666666665
 30
0.0
 11
16.764
 21
196.76533333333333
 31
0.0
  0
LINE
  5
1B9
330
17
100
AcDbEntity
  8
10_GEOMETRY_CANDIDATE
100
AcDbLine
 10
1.1853333333333331
 20
162.13666666666666
 30
0.0
 11
1.4393333333333331
 21
170.01066666666668
 31
0.0
  0
LINE
  5
1BA
330
17
100
AcDbEntity
  8
10_GEOMETRY_CANDIDATE
100
AcDbLine
 10
21.25133333333333
 20
194.14066666666668
 30
0.0
 11
21.336
 21
202.26866666666666
 31
0.0
  0
LINE
  5
1BB
330
17
100
AcDbEntity
  8
10_GEOMETRY_CANDIDATE
100
AcDbLine
 10
24.892
 20
278.13
 30
0.0
 11
42.925999999999995
 21
278.384
 31
0.0
  0
LINE
  5
1BC
330
17
100
AcDbEntity
  8
10_GEOMETRY_CANDIDATE
100
AcDbLine
 10
11.599333333333332
 20
243.24733333333333
 30
0.0
 11
22.098
 21
248.666
 31
0.0
  0
LINE
  5
1BD
330
17
100
AcDbEntity
  8
10_GEOMETRY_CANDIDATE
100
AcDbLine
 10
58.25066666666667
 20
48.598666666666645
 30
0.0
 11
58.58933333333333
 21
58.25066666666669
 31
0.0
  0
LINE
  5
1BE
330
17
100
AcDbEntity
  8
10_GEOMETRY_CANDIDATE
100
AcDbLine
 10
45.80466666666666
 20
201.168
 30
0.0
 11
63.330666666666666
 21
195.834
 31
0.0
  0
LINE
  5
1BF
330
17
100
AcDbEntity
  8
10_GEOMETRY_CANDIDATE
100
AcDbLine
 10
22.436666666666667
 20
191.34666666666666
 30
0.0
 11
22.690666666666665
 21
200.06733333333332
 31
0.0
  0
LINE
  5
1C0
330
17
100
AcDbEntity
  8
10_GEOMETRY_CANDIDATE
100
AcDbLine
 10
0.0
 20
91.18599999999998
 30
0.0
 11
13.546666666666667
 21
60.79066666666668
 31
0.0
  0
LINE
  5
1C1
330
17
100
AcDbEntity
  8
10_GEOMETRY_CANDIDATE
100
AcDbLine
 10
37.846
 20
108.458
 30
0.0
 11
40.894
 21
89.32333333333335
 31
0.0
  0
LINE
  5
1C2
330
17
100
AcDbEntity
  8
10_GEOMETRY_CANDIDATE
100
AcDbLine
 10
55.79533333333333
 20
75.35333333333335
 30
0.0
 11
57.57333333333333
 21
67.98733333333334
 31
0.0
  0
LINE
  5
1C3
330
17
100
AcDbEntity
  8
10_GEOMETRY_CANDIDATE
100
AcDbLine
 10
49.95333333333333
 20
200.06733333333332
 30
0.0
 11
61.38333333333333
 21
196.596
 31
0.0
  0
LINE
  5
1C4
330
17
100
AcDbEntity
  8
10_GEOMETRY_CANDIDATE
100
AcDbLine
 10
58.843333333333334
 20
48.090666666666664
 30
0.0
 11
59.09733333333334
 21
56.21866666666665
 31
0.0
  0
LINE
  5
1C5
330
17
100
AcDbEntity
  8
10_GEOMETRY_CANDIDATE
100
AcDbLine
 10
26.162
 20
196.51133333333334
 30
0.0
 11
39.37
 21
196.76533333333333
 31
0.0
  0
LINE
  5
1C6
330
17
100
AcDbEntity
  8
10_GEOMETRY_CANDIDATE
100
AcDbLine
 10
4.826
 20
133.604
 30
0.0
 11
12.446
 21
133.68866666666665
 31
0.0
  0
LINE
  5
1C7
330
17
100
AcDbEntity
  8
10_GEOMETRY_CANDIDATE
100
AcDbLine
 10
23.368
 20
244.77133333333336
 30
0.0
 11
30.310666666666663
 21
246.46466666666666
 31
0.0
  0
LINE
  5
1C8
330
17
100
AcDbEntity
  8
10_GEOMETRY_CANDIDATE
100
AcDbLine
 10
9.736666666666666
 20
168.57133333333334
 30
0.0
 11
19.89666666666667
 21
168.91
 31
0.0
  0
LINE
  5
1C9
330
17
100
AcDbEntity
  8
10_GEOMETRY_CANDIDATE
100
AcDbLine
 10
45.63533333333333
 20
46.56666666666672
 30
0.0
 11
46.736
 21
56.641999999999996
 31
0.0
  0
LINE
  5
1CA
330
17
100
AcDbEntity
  8
10_GEOMETRY_CANDIDATE
100
AcDbLine
 10
0.42333333333333334
 20
108.88133333333334
 30
0.0
 11
18.203333333333333
 21
108.88133333333334
 31
0.0
  0
LINE
  5
1CB
330
17
100
AcDbEntity
  8
10_GEOMETRY_CANDIDATE
100
AcDbLine
 10
84.15866666666666
 20
202.52266666666668
 30
0.0
 11
84.15866666666666
 21
219.45600000000002
 31
0.0
  0
LINE
  5
1CC
330
17
100
AcDbEntity
  8
10_GEOMETRY_CANDIDATE
100
AcDbLine
 10
11.599333333333332
 20
243.16266666666667
 30
0.0
 11
22.098
 21
248.49666666666667
 31
0.0
  0
LINE
  5
1CD
330
17
100
AcDbEntity
  8
10_GEOMETRY_CANDIDATE
100
AcDbLine
 10
19.304
 20
144.61066666666667
 30
0.0
 11
19.558
 21
151.55333333333334
 31
0.0
  0
LINE
  5
1CE
330
17
100
AcDbEntity
  8
10_GEOMETRY_CANDIDATE
100
AcDbLine
 10
58.674
 20
48.175333333333356
 30
0.0
 11
59.01266666666666
 21
56.30333333333337
 31
0.0
  0
LINE
  5
1CF
330
17
100
AcDbEntity
  8
10_GEOMETRY_CANDIDATE
100
AcDbLine
 10
58.25066666666667
 20
48.68333333333334
 30
0.0
 11
58.50466666666666
 21
58.08133333333333
 31
0.0
  0
LINE
  5
1D0
330
17
100
AcDbEntity
  8
10_GEOMETRY_CANDIDATE
100
AcDbLine
 10
49.10666666666667
 20
81.53400000000002
 30
0.0
 11
56.38799999999999
 21
81.53400000000002
 31
0.0
  0
LINE
  5
1D1
330
17
100
AcDbEntity
  8
10_GEOMETRY_CANDIDATE
100
AcDbLine
 10
59.77466666666666
 20
217.0006666666667
 30
0.0
 11
61.806666666666665
 21
224.536
 31
0.0
  0
LINE
  5
1D2
330
17
100
AcDbEntity
  8
10_GEOMETRY_CANDIDATE
100
AcDbLine
 10
42.75666666666667
 20
80.17933333333332
 30
0.0
 11
44.196
 21
70.10400000000001
 31
0.0
  0
LINE
  5
1D3
330
17
100
AcDbEntity
  8
10_GEOMETRY_CANDIDATE
100
AcDbLine
 10
58.58933333333333
 20
48.175333333333356
 30
0.0
 11
58.843333333333334
 21
56.47266666666664
 31
0.0
  0
LINE
  5
1D4
330
17
100
AcDbEntity
  8
10_GEOMETRY_CANDIDATE
100
AcDbLine
 10
11.43
 20
243.332
 30
0.0
 11
21.928666666666665
 21
248.666
 31
0.0
  0
LINE
  5
1D5
330
17
100
AcDbEntity
  8
10_GEOMETRY_CANDIDATE
100
AcDbLine
 10
15.663333333333334
 20
234.35733333333332
 30
0.0
 11
22.52133333333333
 21
237.998
 31
0.0
  0
LINE
  5
1D6
330
17
100
AcDbEntity
  8
10_GEOMETRY_CANDIDATE
100
AcDbLine
 10
46.14333333333333
 20
201.76066666666668
 30
0.0
 11
53.001333333333335
 21
224.19733333333335
 31
0.0
  0
LINE
  5
1D7
330
17
100
AcDbEntity
  8
10_GEOMETRY_CANDIDATE
100
AcDbLine
 10
63.245999999999995
 20
115.82400000000001
 30
0.0
 11
71.71266666666666
 21
115.82400000000001
 31
0.0
  0
LINE
  5
1D8
330
17
100
AcDbEntity
  8
10_GEOMETRY_CANDIDATE
100
AcDbLine
 10
3.81
 20
75.35333333333335
 30
0.0
 11
11.006666666666666
 21
92.37133333333333
 31
0.0
  0
LINE
  5
1D9
330
17
100
AcDbEntity
  8
10_GEOMETRY_CANDIDATE
100
AcDbLine
 10
53.678666666666665
 20
107.35733333333334
 30
0.0
 11
55.45666666666666
 21
90.17000000000002
 31
0.0
  0
LINE
  5
1DA
330
17
100
AcDbEntity
  8
10_GEOMETRY_CANDIDATE
100
AcDbLine
 10
54.355999999999995
 20
80.34866666666667
 30
0.0
 11
56.98066666666667
 21
69.93466666666669
 31
0.0
  0
LINE
  5
1DB
330
17
100
AcDbEntity
  8
10_GEOMETRY_CANDIDATE
100
AcDbLine
 10
26.162
 20
196.42666666666668
 30
0.0
 11
34.71333333333333
 21
196.596
 31
0.0
  0
LINE
  5
1DC
330
17
100
AcDbEntity
  8
10_GEOMETRY_CANDIDATE
100
AcDbLine
 10
44.873333333333335
 20
68.1566666666667
 30
0.0
 11
57.31933333333333
 21
88.98466666666667
 31
0.0
  0
LINE
  5
1DD
330
17
100
AcDbEntity
  8
10_GEOMETRY_CANDIDATE
100
AcDbLine
 10
16.933333333333334
 20
168.74066666666667
 30
0.0
 11
17.017999999999997
 21
175.68333333333334
 31
0.0
  0
LINE
  5
1DE
330
17
100
AcDbEntity
  8
10_GEOMETRY_CANDIDATE
100
AcDbLine
 10
36.576
 20
190.754
 30
0.0
 11
44.45
 21
199.81333333333333
 31
0.0
  0
LINE
  5
1DF
330
17
100
AcDbEntity
  8
10_GEOMETRY_CANDIDATE
100
AcDbLine
 10
37.338
 20
107.86533333333333
 30
0.0
 11
45.63533333333333
 21
107.86533333333333
 31
0.0
  0
LINE
  5
1E0
330
17
100
AcDbEntity
  8
10_GEOMETRY_CANDIDATE
100
AcDbLine
 10
50.8
 20
224.62066666666666
 30
0.0
 11
62.82266666666666
 21
222.50400000000002
 31
0.0
  0
LINE
  5
1E1
330
17
100
AcDbEntity
  8
10_GEOMETRY_CANDIDATE
100
AcDbLine
 10
84.49733333333333
 20
119.21066666666667
 30
0.0
 11
84.582
 21
126.32266666666666
 31
0.0
  0
LINE
  5
1E2
330
17
100
AcDbEntity
  8
10_GEOMETRY_CANDIDATE
100
AcDbLine
 10
2.8786666666666663
 20
67.05599999999998
 30
0.0
 11
5.587999999999999
 21
60.19800000000001
 31
0.0
  0
LINE
  5
1E3
330
17
100
AcDbEntity
  8
10_GEOMETRY_CANDIDATE
100
AcDbLine
 10
38.1
 20
192.44733333333332
 30
0.0
 11
44.534666666666666
 21
199.81333333333333
 31
0.0
  0
LINE
  5
1E4
330
17
100
AcDbEntity
  8
10_GEOMETRY_CANDIDATE
100
AcDbLine
 10
38.1
 20
82.804
 30
0.0
 11
64.008
 21
67.90266666666665
 31
0.0
  0
LINE
  5
1E5
330
17
100
AcDbEntity
  8
10_GEOMETRY_CANDIDATE
100
AcDbLine
 10
37.846
 20
107.78066666666669
 30
0.0
 11
39.70866666666666
 21
96.35066666666668
 31
0.0
  0
LINE
  5
1E6
330
17
100
AcDbEntity
  8
10_GEOMETRY_CANDIDATE
100
AcDbLine
 10
60.367333333333335
 20
94.57266666666666
 30
0.0
 11
67.64866666666666
 21
106.76466666666667
 31
0.0
  0
LINE
  5
1E7
330
17
100
AcDbEntity
  8
10_GEOMETRY_CANDIDATE
100
AcDbLine
 10
55.79533333333333
 20
279.146
 30
0.0
 11
62.907333333333334
 21
279.146
 31
0.0
  0
LINE
  5
1E8
330
17
100
AcDbEntity
  8
10_GEOMETRY_CANDIDATE
100
AcDbLine
 10
84.41266666666667
 20
145.88066666666668
 30
0.0
 11
84.41266666666667
 21
155.10933333333335
 31
0.0
  0
LINE
  5
1E9
330
17
100
AcDbEntity
  8
10_GEOMETRY_CANDIDATE
100
AcDbLine
 10
51.13866666666666
 20
224.36666666666667
 30
0.0
 11
61.214000000000006
 21
222.58866666666665
 31
0.0
  0
LINE
  5
1EA
330
17
100
AcDbEntity
  8
10_GEOMETRY_CANDIDATE
100
AcDbLine
 10
60.19799999999999
 20
82.21133333333333
 30
0.0
 11
67.39466666666667
 21
82.21133333333333
 31
0.0
  0
LINE
  5
1EB
330
17
100
AcDbEntity
  8
10_GEOMETRY_CANDIDATE
100
AcDbLine
 10
58.674
 20
48.429333333333375
 30
0.0
 11
58.92799999999999
 21
55.625999999999976
 31
0.0
  0
LINE
  5
1EC
330
17
100
AcDbEntity
  8
10_GEOMETRY_CANDIDATE
100
AcDbLine
 10
84.24333333333334
 20
199.55933333333334
 30
0.0
 11
84.24333333333334
 21
210.566
 31
0.0
  0
TEXT
  5
1ED
330
17
100
AcDbEntity
  8
20_TEXT_CANDIDATE
100
AcDbText
 10
16.514666666666667
 20
278.13
 30
0.0
 40
1.5
  1
—
 11
16.514666666666667
 21
278.13
 31
0.0
100
AcDbText
  0
TEXT
  5
1EE
330
17
100
AcDbEntity
  8
20_TEXT_CANDIDATE
100
AcDbText
 10
40.306
 20
278.04533333333336
 30
0.0
 40
1.5
  1
=
 11
40.306
 21
278.04533333333336
 31
0.0
100
AcDbText
  0
TEXT
  5
1EF
330
17
100
AcDbEntity
  8
20_TEXT_CANDIDATE
100
AcDbText
 10
84.41733333333332
 20
209.804
 30
0.0
 40
1.5
  1
—-
 11
84.41733333333332
 21
209.804
 31
0.0
100
AcDbText
  0
TEXT
  5
1F0
330
17
100
AcDbEntity
  8
20_TEXT_CANDIDATE
100
AcDbText
 10
12.450666666666665
 20
199.22066666666666
 30
0.0
 40
2.2013333333333334
  1
DA
 11
12.450666666666665
 21
199.22066666666666
 31
0.0
100
AcDbText
  0
TEXT
  5
1F1
330
17
100
AcDbEntity
  8
20_TEXT_CANDIDATE
100
AcDbText
 10
31.161999999999995
 20
191.1773333333333
 30
0.0
 40
3.1326666666666667
  1
S-
 11
31.161999999999995
 21
191.1773333333333
 31
0.0
100
AcDbText
  0
TEXT
  5
1F2
330
17
100
AcDbEntity
  8
20_TEXT_CANDIDATE
100
AcDbText
 10
23.795999999999996
 20
185.25066666666666
 30
0.0
 40
2.9633333333333334
  1
>
 11
23.795999999999996
 21
185.25066666666666
 31
0.0
100
AcDbText
  0
TEXT
  5
1F3
330
17
100
AcDbEntity
  8
20_TEXT_CANDIDATE
100
AcDbText
 10
11.688666666666665
 20
182.9646666666667
 30
0.0
 40
1.5
  1
p
 11
11.688666666666665
 21
182.9646666666667
 31
0.0
100
AcDbText
  0
TEXT
  5
1F4
330
17
100
AcDbEntity
  8
20_TEXT_CANDIDATE
100
AcDbText
 10
15.58333333333333
 20
182.37199999999999
 30
0.0
 40
2.54
  1
Oo
 11
15.58333333333333
 21
182.37199999999999
 31
0.0
100
AcDbText
  0
TEXT
  5
1F5
330
17
100
AcDbEntity
  8
20_TEXT_CANDIDATE
100
AcDbText
 10
19.816666666666663
 20
183.134
 30
0.0
 40
1.5
  1
A
 11
19.816666666666663
 21
183.134
 31
0.0
100
AcDbText
  0
TEXT
  5
1F6
330
17
100
AcDbEntity
  8
20_TEXT_CANDIDATE
100
AcDbText
 10
8.556
 20
177.54600000000002
 30
0.0
 40
1.5
  1
e
 11
8.556
 21
177.54600000000002
 31
0.0
100
AcDbText
  0
TEXT
  5
1F7
330
17
100
AcDbEntity
  8
20_TEXT_CANDIDATE
100
AcDbText
 10
8.725333333333333
 20
175.93733333333336
 30
0.0
 40
1.5
  1
=
 11
8.725333333333333
 21
175.93733333333336
 31
0.0
100
AcDbText
  0
TEXT
  5
1F8
330
17
100
AcDbEntity
  8
20_TEXT_CANDIDATE
100
AcDbText
 10
11.434666666666665
 20
175.42933333333335
 30
0.0
 40
1.5
  1
fo
 11
11.434666666666665
 21
175.42933333333335
 31
0.0
100
AcDbText
  0
TEXT
  5
1F9
330
17
100
AcDbEntity
  8
20_TEXT_CANDIDATE
100
AcDbText
 10
15.32933333333333
 20
173.14333333333335
 30
0.0
 40
2.455333333333333
  1
©)
 11
15.32933333333333
 21
173.14333333333335
 31
0.0
100
AcDbText
  0
TEXT
  5
1FA
330
17
100
AcDbEntity
  8
20_TEXT_CANDIDATE
100
AcDbText
 10
31.923999999999996
 20
173.82066666666668
 30
0.0
 40
1.6086666666666665
  1
>*
 11
31.923999999999996
 21
173.82066666666668
 31
0.0
100
AcDbText
  0
TEXT
  5
1FB
330
17
100
AcDbEntity
  8
20_TEXT_CANDIDATE
100
AcDbText
 10
23.118666666666666
 20
169.75666666666666
 30
0.0
 40
1.524
  1
0
 11
23.118666666666666
 21
169.75666666666666
 31
0.0
100
AcDbText
  0
TEXT
  5
1FC
330
17
100
AcDbEntity
  8
20_TEXT_CANDIDATE
100
AcDbText
 10
27.182666666666663
 20
170.18
 30
0.0
 40
1.5
  1
>
 11
27.182666666666663
 21
170.18
 31
0.0
100
AcDbText
  0
TEXT
  5
1FD
330
17
100
AcDbEntity
  8
20_TEXT_CANDIDATE
100
AcDbText
 10
27.098
 20
166.03133333333335
 30
0.0
 40
1.524
  1
Dros
 11
27.098
 21
166.03133333333335
 31
0.0
100
AcDbText
  0
TEXT
  5
1FE
330
17
100
AcDbEntity
  8
20_TEXT_CANDIDATE
100
AcDbText
 10
22.949333333333332
 20
163.068
 30
0.0
 40
1.6086666666666665
  1
9
 11
22.949333333333332
 21
163.068
 31
0.0
100
AcDbText
  0
TEXT
  5
1FF
330
17
100
AcDbEntity
  8
20_TEXT_CANDIDATE
100
AcDbText
 10
11.434666666666665
 20
162.306
 30
0.0
 40
7.027333333333333
  1
S
 11
11.434666666666665
 21
162.306
 31
0.0
100
AcDbText
  0
TEXT
  5
200
330
17
100
AcDbEntity
  8
20_TEXT_CANDIDATE
100
AcDbText
 10
19.223999999999997
 20
162.052
 30
0.0
 40
2.0319999999999996
  1
wz
 11
19.223999999999997
 21
162.052
 31
0.0
100
AcDbText
  0
TEXT
  5
201
330
17
100
AcDbEntity
  8
20_TEXT_CANDIDATE
100
AcDbText
 10
27.013333333333332
 20
161.20533333333333
 30
0.0
 40
1.8626666666666665
  1
me
 11
27.013333333333332
 21
161.20533333333333
 31
0.0
100
AcDbText
  0
TEXT
  5
202
330
17
100
AcDbEntity
  8
20_TEXT_CANDIDATE
100
AcDbText
 10
26.674666666666667
 20
159.34266666666667
 30
0.0
 40
1.6933333333333334
  1
One
 11
26.674666666666667
 21
159.34266666666667
 31
0.0
100
AcDbText
  0
TEXT
  5
203
330
17
100
AcDbEntity
  8
20_TEXT_CANDIDATE
100
AcDbText
 10
26.928666666666665
 20
158.496
 30
0.0
 40
2.8786666666666663
  1
=>
 11
26.928666666666665
 21
158.496
 31
0.0
100
AcDbText
  0
TEXT
  5
204
330
17
100
AcDbEntity
  8
20_TEXT_CANDIDATE
100
AcDbText
 10
30.4
 20
158.91933333333336
 30
0.0
 40
1.5
  1
(=
 11
30.4
 21
158.91933333333336
 31
0.0
100
AcDbText
  0
TEXT
  5
205
330
17
100
AcDbEntity
  8
20_TEXT_CANDIDATE
100
AcDbText
 10
10.926666666666666
 20
154.60133333333334
 30
0.0
 40
1.5
  1
D
 11
10.926666666666666
 21
154.60133333333334
 31
0.0
100
AcDbText
  0
TEXT
  5
206
330
17
100
AcDbEntity
  8
20_TEXT_CANDIDATE
100
AcDbText
 10
15.159999999999997
 20
154.77066666666667
 30
0.0
 40
1.5
  1
=
 11
15.159999999999997
 21
154.77066666666667
 31
0.0
100
AcDbText
  0
TEXT
  5
207
330
17
100
AcDbEntity
  8
20_TEXT_CANDIDATE
100
AcDbText
 10
26.75933333333333
 20
155.87133333333333
 30
0.0
 40
2.3706666666666663
  1
of
 11
26.75933333333333
 21
155.87133333333333
 31
0.0
100
AcDbText
  0
TEXT
  5
208
330
17
100
AcDbEntity
  8
20_TEXT_CANDIDATE
100
AcDbText
 10
26.75933333333333
 20
153.416
 30
0.0
 40
1.6933333333333334
  1
Os
 11
26.75933333333333
 21
153.416
 31
0.0
100
AcDbText
  0
TEXT
  5
209
330
17
100
AcDbEntity
  8
20_TEXT_CANDIDATE
100
AcDbText
 10
14.482666666666665
 20
149.94466666666668
 30
0.0
 40
1.5
  1
»
 11
14.482666666666665
 21
149.94466666666668
 31
0.0
100
AcDbText
  0
TEXT
  5
20A
330
17
100
AcDbEntity
  8
20_TEXT_CANDIDATE
100
AcDbText
 10
26.674666666666667
 20
150.53733333333335
 30
0.0
 40
1.8626666666666665
  1
<=
 11
26.674666666666667
 21
150.53733333333335
 31
0.0
100
AcDbText
  0
TEXT
  5
20B
330
17
100
AcDbEntity
  8
20_TEXT_CANDIDATE
100
AcDbText
 10
89.49733333333333
 20
133.68866666666665
 30
0.0
 40
3.725333333333333
  1
te
 11
89.49733333333333
 21
133.68866666666665
 31
0.0
100
AcDbText
  0
TEXT
  5
20C
330
17
100
AcDbEntity
  8
20_TEXT_CANDIDATE
100
AcDbText
 10
84.84066666666666
 20
133.096
 30
0.0
 40
1.5
  1
n
 11
84.84066666666666
 21
133.096
 31
0.0
100
AcDbText
  0
TEXT
  5
20D
330
17
100
AcDbEntity
  8
20_TEXT_CANDIDATE
100
AcDbText
 10
57.74733333333332
 20
115.90866666666668
 30
0.0
 40
1.778
  1
50
 11
57.74733333333332
 21
115.90866666666668
 31
0.0
100
AcDbText
  0
TEXT
  5
20E
330
17
100
AcDbEntity
  8
20_TEXT_CANDIDATE
100
AcDbText
 10
62.23466666666666
 20
85.9366666666667
 30
0.0
 40
1.5
  1
/
 11
62.23466666666666
 21
85.9366666666667
 31
0.0
100
AcDbText
  0
TEXT
  5
20F
330
17
100
AcDbEntity
  8
20_TEXT_CANDIDATE
100
AcDbText
 10
75.10399999999998
 20
82.21133333333333
 30
0.0
 40
2.54
  1
(del
 11
75.10399999999998
 21
82.21133333333333
 31
0.0
100
AcDbText
  0
TEXT
  5
210
330
17
100
AcDbEntity
  8
20_TEXT_CANDIDATE
100
AcDbText
 10
45.132
 20
81.36466666666666
 30
0.0
 40
1.5
  1
——
 11
45.132
 21
81.36466666666666
 31
0.0
100
AcDbText
  0
TEXT
  5
211
330
17
100
AcDbEntity
  8
20_TEXT_CANDIDATE
100
AcDbText
 10
49.111333333333334
 20
70.358
 30
0.0
 40
10.837333333333333
  1
\
 11
49.111333333333334
 21
70.358
 31
0.0
100
AcDbText
  0
TEXT
  5
212
330
17
100
AcDbEntity
  8
20_TEXT_CANDIDATE
100
AcDbText
 10
72.14066666666666
 20
29.887333333333345
 30
0.0
 40
3.217333333333333
  1
x
 11
72.14066666666666
 21
29.887333333333345
 31
0.0
100
AcDbText
  0
TEXT
  5
213
330
17
100
AcDbEntity
  8
20_TEXT_CANDIDATE
100
AcDbText
 10
71.71733333333333
 20
26.585333333333324
 30
0.0
 40
1.6086666666666665
  1
N
 11
71.71733333333333
 21
26.585333333333324
 31
0.0
100
AcDbText
  0
ENDSEC
  0
SECTION
  2
OBJECTS
  0
DICTIONARY
  5
A
330
0
100
AcDbDictionary
281
1
  3
ACAD_COLOR
350
B
  3
ACAD_GROUP
350
C
  3
ACAD_LAYOUT
350
D
  3
ACAD_MATERIAL
350
E
  3
ACAD_MLEADERSTYLE
350
F
  3
ACAD_MLINESTYLE
350
10
  3
ACAD_PLOTSETTINGS
350
11
  3
ACAD_PLOTSTYLENAME
350
12
  3
ACAD_SCALELIST
350
14
  3
ACAD_TABLESTYLE
350
15
  3
ACAD_VISUALSTYLE
350
16
  3
EZDXF_META
350
2D
  0
DICTIONARY
  5
B
330
A
100
AcDbDictionary
281
1
  0
DICTIONARY
  5
C
330
A
100
AcDbDictionary
281
1
  0
DICTIONARY
  5
D
330
A
100
AcDbDictionary
281
1
  3
Model
350
1A
  3
Layout1
350
1E
  0
DICTIONARY
  5
E
330
A
100
AcDbDictionary
281
1
  3
ByBlock
350
1F
  3
ByLayer
350
20
  3
Global
350
21
  0
DICTIONARY
  5
F
330
A
100
AcDbDictionary
281
1
  3
Standard
350
2C
  0
DICTIONARY
  5
10
330
A
100
AcDbDictionary
281
1
  3
Standard
350
22
  0
DICTIONARY
  5
11
330
A
100
AcDbDictionary
281
1
  0
ACDBDICTIONARYWDFLT
  5
12
330
A
100
AcDbDictionary
281
1
  3
Normal
350
13
100
AcDbDictionaryWithDefault
340
13
  0
ACDBPLACEHOLDER
  5
13
330
12
  0
DICTIONARY
  5
14
330
A
100
AcDbDictionary
281
1
  0
DICTIONARY
  5
15
330
A
100
AcDbDictionary
281
1
  0
DICTIONARY
  5
16
330
A
100
AcDbDictionary
281
1
  0
LAYOUT
  5
1A
330
D
100
AcDbPlotSettings
  1

  4
A3
  6

 40
7.5
 41
20.0
 42
7.5
 43
20.0
 44
420.0
 45
297.0
 46
0.0
 47
0.0
 48
0.0
 49
0.0
140
0.0
141
0.0
142
1.0
143
1.0
 70
1024
 72
1
 73
0
 74
5
  7

 75
16
 76
0
 77
2
 78
300
147
1.0
148
0.0
149
0.0
100
AcDbLayout
  1
Model
 70
1
 71
0
 10
0.0
 20
0.0
 11
420.0
 21
297.0
 12
0.0
 22
0.0
 32
0.0
 14
1e+20
 24
1e+20
 34
1e+20
 15
-1e+20
 25
-1e+20
 35
-1e+20
146
0.0
 13
0.0
 23
0.0
 33
0.0
 16
1.0
 26
0.0
 36
0.0
 17
0.0
 27
1.0
 37
0.0
 76
1
330
17
  0
LAYOUT
  5
1E
330
D
100
AcDbPlotSettings
  1

  4
A3
  6

 40
7.5
 41
20.0
 42
7.5
 43
20.0
 44
420.0
 45
297.0
 46
0.0
 47
0.0
 48
0.0
 49
0.0
140
0.0
141
0.0
142
1.0
143
1.0
 70
0
 72
1
 73
0
 74
5
  7

 75
16
 76
0
 77
2
 78
300
147
1.0
148
0.0
149
0.0
100
AcDbLayout
  1
Layout1
 70
1
 71
1
 10
0.0
 20
0.0
 11
420.0
 21
297.0
 12
0.0
 22
0.0
 32
0.0
 14
1e+20
 24
1e+20
 34
1e+20
 15
-1e+20
 25
-1e+20
 35
-1e+20
146
0.0
 13
0.0
 23
0.0
 33
0.0
 16
1.0
 26
0.0
 36
0.0
 17
0.0
 27
1.0
 37
0.0
 76
1
330
1B
  0
MATERIAL
  5
1F
102
{ACAD_REACTORS
330
E
102
}
330
E
100
AcDbMaterial
  1
ByBlock
  2

 70
0
 40
1.0
 71
1
 41
1.0
 91
-1023410177
 42
1.0
 72
1
  3

 73
1
 74
1
 75
1
 44
0.5
 73
0
 45
1.0
 46
1.0
 77
1
  4

 78
1
 79
1
170
1
 48
1.0
171
1
  6

172
1
173
1
174
1
140
1.0
141
1.0
175
1
  7

176
1
177
1
178
1
143
1.0
179
1
  8

270
1
271
1
272
1
145
1.0
146
1.0
273
1
  9

274
1
275
1
276
1
 42
1.0
 72
1
  3

 73
1
 74
1
 75
1
 94
63
  0
MATERIAL
  5
20
102
{ACAD_REACTORS
330
E
102
}
330
E
100
AcDbMaterial
  1
ByLayer
  2

 70
0
 40
1.0
 71
1
 41
1.0
 91
-1023410177
 42
1.0
 72
1
  3

 73
1
 74
1
 75
1
 44
0.5
 73
0
 45
1.0
 46
1.0
 77
1
  4

 78
1
 79
1
170
1
 48
1.0
171
1
  6

172
1
173
1
174
1
140
1.0
141
1.0
175
1
  7

176
1
177
1
178
1
143
1.0
179
1
  8

270
1
271
1
272
1
145
1.0
146
1.0
273
1
  9

274
1
275
1
276
1
 42
1.0
 72
1
  3

 73
1
 74
1
 75
1
 94
63
  0
MATERIAL
  5
21
102
{ACAD_REACTORS
330
E
102
}
330
E
100
AcDbMaterial
  1
Global
  2

 70
0
 40
1.0
 71
1
 41
1.0
 91
-1023410177
 42
1.0
 72
1
  3

 73
1
 74
1
 75
1
 44
0.5
 73
0
 45
1.0
 46
1.0
 77
1
  4

 78
1
 79
1
170
1
 48
1.0
171
1
  6

172
1
173
1
174
1
140
1.0
141
1.0
175
1
  7

176
1
177
1
178
1
143
1.0
179
1
  8

270
1
271
1
272
1
145
1.0
146
1.0
273
1
  9

274
1
275
1
276
1
 42
1.0
 72
1
  3

 73
1
 74
1
 75
1
 94
63
  0
MLINESTYLE
  5
22
102
{ACAD_REACTORS
330
10
102
}
330
10
100
AcDbMlineStyle
  2
Standard
 70
0
  3

 62
256
 51
90.0
 52
90.0
 71
2
 49
0.5
 62
256
  6
BYLAYER
 49
-0.5
 62
256
  6
BYLAYER
  0
MLEADERSTYLE
  5
2C
102
{ACAD_REACTORS
330
F
102
}
330
F
100
AcDbMLeaderStyle
179
2
170
2
171
1
172
0
 90
2
 40
0.0
 41
0.0
173
1
 91
-1056964608
 92
-2
290
1
 42
2.0
291
1
 43
8.0
  3
Standard
 44
4.0
300

342
29
174
1
175
1
176
0
178
1
 93
-1056964608
 45
4.0
292
0
297
0
 46
4.0
 94
-1056964608
 47
1.0
 49
1.0
140
1.0
294
1
141
0.0
177
0
142
1.0
295
0
296
0
143
3.75
271
0
272
9
273
9
  0
DICTIONARY
  5
2D
330
A
100
AcDbDictionary
280
1
281
1
  3
CREATED_BY_EZDXF
350
2E
  3
WRITTEN_BY_EZDXF
350
216
  0
DICTIONARYVAR
  5
2E
330
2D
100
DictionaryVariables
280
0
  1
1.4.4 @ 2026-08-26T10:10:11.599803+00:00
  0
DICTIONARYVAR
  5
216
330
2D
100
DictionaryVariables
280
0
  1
1.4.4 @ 2026-08-26T10:10:11.609467+00:00
  0
ENDSEC
  0
EOF
